<?xml version="1.0" encoding="UTF-8"?><svg xmlns="http://www.w3.org/2000/svg" xmlns:xlink="http://www.w3.org/1999/xlink" viewBox="0 0 283.46 283.46"><defs><style>.cls-1{fill:url(#linear-gradient-2);}.cls-2{fill:#17aa00;}.cls-3{fill:#896536;}.cls-4{fill:#2463d3;}.cls-5{fill:#17d400;}.cls-6{fill:url(#linear-gradient-3);}.cls-7{fill:url(#linear-gradient);}.cls-8{fill:#f4df47;}.cls-9{fill:#07890d;}</style><linearGradient id="linear-gradient" x1="141.955" y1="-.6" x2="142.098" y2="359.317" gradientTransform="matrix(1, 0, 0, 1, 0, 0)" gradientUnits="userSpaceOnUse"><stop offset=".109" stop-color="#27aae1"/><stop offset=".309" stop-color="#27a6e1"/><stop offset=".475" stop-color="#279ce1"/><stop offset=".629" stop-color="#278be1"/><stop offset=".775" stop-color="#2772e1"/><stop offset=".805" stop-color="#276de1"/></linearGradient><linearGradient id="linear-gradient-2" x1="0" y1="253.712" x2="283.038" y2="253.712" gradientTransform="matrix(1, 0, 0, 1, 0, 0)" gradientUnits="userSpaceOnUse"><stop offset=".207" stop-color="#d5b57b"/><stop offset=".785" stop-color="#d5b593"/></linearGradient><linearGradient id="linear-gradient-3" x1="2.371" y1="224.501" x2="280.616" y2="224.501" xlink:href="#linear-gradient-2"/></defs><g id="sky"><rect id="Blue_Sky" class="cls-7" width="284" height="225"/><rect id="Sun" class="cls-8" x="202.192" y="7.731" width="71" height="71" rx="35.5" ry="35.5"/></g><g id="_1_bg_MIA_10-12"><rect id="Ocean" class="cls-4" y="200" width="284" height="45"/><g id="Beach"><rect id="beach" class="cls-1" y="224" width="283.038" height="59.423"/><path class="cls-6" d="M2.383,226.292c17.418,.419,34.838,.734,52.259,.968,18.498,.249,36.997,.409,55.496,.49,18.759,.083,37.518,.086,56.277,.009,18.526-.076,37.052-.23,55.576-.472,17.474-.229,34.947-.536,52.418-.948,2.065-.049,4.13-.099,6.195-.151,3.212-.08,3.224-5.081,0-5-17.305,.433-34.612,.76-51.921,1.007-18.44,.263-36.88,.436-55.322,.532-18.755,.097-37.511,.113-56.267,.051-18.577-.062-37.155-.202-55.731-.431-17.58-.216-35.159-.511-52.735-.909-2.082-.047-4.164-.096-6.246-.146-3.219-.077-3.217,4.923,0,5h0Z"/></g><g id="Palm_Trees"><path class="cls-3" d="M58.799,183.711c10.56,20.891,10.996,40.58,1.438,62.016-1.267-.273-2.515-.584-3.744-.933,9.713-20.989,9.222-39.487-1.223-59.777,1.155-.47,2.332-.906,3.529-1.307Z"/><path class="cls-3" d="M239.417,190.184c-10.412,13.618-16.632,32.339-14.985,53.079-1.313-.086-2.629-.194-3.947-.324-1.532-21.512,5.011-40.968,15.951-55.193,.982,.832,1.976,1.645,2.98,2.439Z"/><path class="cls-2" d="M213.764,184.941c12.66-4.61,24.802-3.131,27.147,3.307"/><path class="cls-2" d="M54.764,183.941c11.754-4.28,23.163-2.534,25.507,3.904"/><path class="cls-2" d="M25.901,195.884c12.818-12.783,27.941-18.363,33.811-12.477"/><path class="cls-2" d="M243.237,221.182c-10.139-13.705-12.187-29.349-4.58-34.977"/><path class="cls-2" d="M56,181.091c6.902,13.801,6.47,27.977-.965,31.696"/><path class="cls-5" d="M252,215c2.406-14.342-4.937-27.506-16.418-29.432"/><path class="cls-5" d="M74.522,208.717c3.258-10.48-4.993-22.345-18.448-26.529"/><path class="cls-9" d="M238.137,188.358c-10.025-4.067-22.197,2.649-27.215,15.016"/><path class="cls-9" d="M58.77,182.342c-13.187,2.198-21.9,15.716-19.482,30.222"/></g></g></svg>