<?xml version="1.0" encoding="UTF-8"?><svg xmlns="http://www.w3.org/2000/svg" viewBox="0 0 283.46 283.46"><defs><style>.cls-1{fill:#fff;}.cls-2{isolation:isolate;}.cls-3{fill:#ff0049;}.cls-4{fill:#635f66;mix-blend-mode:overlay;}</style></defs><g class="cls-2"><g id="_5-07-Left_Eye"><g id="Left_Eye"><g id="L_Ball"><ellipse id="L_EyeShading" class="cls-4" cx="178.957" cy="130.72" rx="16.176" ry="16.854" transform="translate(-24.489 42.838) rotate(-12.784)"/><ellipse id="L_EyeOutline" cx="179.142" cy="130.294" rx="13.866" ry="13.975" transform="translate(-24.39 42.869) rotate(-12.784)"/><circle id="L_EyeWhite" class="cls-1" cx="179.452" cy="129.667" r="11.802"/><path id="L_EyeBallColor" class="cls-3" d="M171.988,128.185c-.592,2.708,.381,5.633,2.757,7.383,3.222,2.373,7.757,1.684,10.13-1.538,2.372-3.222,1.684-7.757-1.538-10.129-2.01-1.48-4.49-1.64-6.678-.866,.139,.076,.293,.1,.423,.197,1.611,1.186,1.955,3.454,.769,5.065-1.186,1.611-3.454,1.955-5.065,.769-.333-.245-.576-.558-.798-.88Zm8.195,.927c.365-1.137,1.583-1.762,2.719-1.397s1.762,1.583,1.396,2.719-1.583,1.762-2.719,1.396c-1.137-.365-1.762-1.583-1.396-2.719Z"/></g></g></g><g id="_8-10-Right_Eye"><g id="Right_Eye"><g id="R_Ball"><ellipse id="R_EyeShading" class="cls-4" cx="134.577" cy="137.77" rx="19.031" ry="19.829" transform="translate(-16.437 18.244) rotate(-7.31)"/><circle id="R_EyeOutline" cx="134.475" cy="137.501" r="16.078"/><circle id="R_EyeWhite" class="cls-1" cx="134.024" cy="137.153" r="13.332"/><path id="R_EyeBallColor" class="cls-3" d="M140.862,133.926c-1.249,1.883-3.788,2.398-5.672,1.15-1.883-1.249-2.398-3.788-1.15-5.672,.101-.153,.255-.238,.373-.373-2.621,.028-5.191,1.161-6.748,3.511-2.497,3.767-1.468,8.846,2.299,11.343,3.768,2.498,8.846,1.468,11.343-2.299,1.842-2.778,1.738-6.259,.06-8.902-.111,.428-.247,.854-.505,1.243Zm-8.255,6.348c-1.064,.829-2.598,.638-3.427-.426-.829-1.064-.638-2.598,.426-3.427s2.598-.638,3.427,.426c.829,1.064,.638,2.598-.426,3.427Z"/></g></g></g></g></svg>