<?xml version="1.0" encoding="UTF-8"?><svg id="_1_hair" xmlns="http://www.w3.org/2000/svg" xmlns:xlink="http://www.w3.org/1999/xlink" viewBox="0 0 283.46 283.46"><defs><linearGradient id="linear-gradient" x1="67.717" y1="184.333" x2="53.123" y2="175.908" gradientTransform="matrix(1, 0, 0, 1, 0, 0)" gradientUnits="userSpaceOnUse"><stop offset=".156" stop-color="#000"/><stop offset=".195" stop-color="#150b04"/><stop offset=".256" stop-color="#321a09"/><stop offset=".322" stop-color="#48260e"/><stop offset=".393" stop-color="#582f11"/><stop offset=".474" stop-color="#623413"/><stop offset=".586" stop-color="#653614"/></linearGradient><linearGradient id="linear-gradient-2" x1="172.17" y1="66.822" x2="101.454" y2="66.822" gradientTransform="matrix(1, 0, 0, 1, 0, 0)" gradientUnits="userSpaceOnUse"><stop offset=".156" stop-color="#000"/><stop offset=".182" stop-color="#0d0602"/><stop offset=".254" stop-color="#2c1708"/><stop offset=".33" stop-color="#45250d"/><stop offset=".408" stop-color="#572e11"/><stop offset=".492" stop-color="#613413"/><stop offset=".591" stop-color="#653614"/><stop offset=".673" stop-color="#522c10"/><stop offset=".838" stop-color="#221206"/><stop offset=".948" stop-color="#000"/></linearGradient><linearGradient id="linear-gradient-3" x1="215.442" y1="114.581" x2="190.564" y2="100.217" xlink:href="#linear-gradient"/><linearGradient id="linear-gradient-4" x1="85.193" y1="207.162" x2="73.312" y2="200.303" xlink:href="#linear-gradient"/><linearGradient id="linear-gradient-5" x1="224.645" y1="205.619" x2="211.959" y2="198.295" xlink:href="#linear-gradient"/><linearGradient id="linear-gradient-6" x1="219.992" y1="59.188" x2="131.927" y2="110.033" gradientTransform="matrix(1, 0, 0, 1, 0, 0)" gradientUnits="userSpaceOnUse"><stop offset=".156" stop-color="#000"/><stop offset=".195" stop-color="#150b04"/><stop offset=".256" stop-color="#321a09"/><stop offset=".322" stop-color="#48260e"/><stop offset=".393" stop-color="#582f11"/><stop offset=".474" stop-color="#623413"/><stop offset=".586" stop-color="#653614"/><stop offset=".645" stop-color="#5d3212"/><stop offset=".731" stop-color="#4a270f"/><stop offset=".834" stop-color="#2a1609"/><stop offset=".944" stop-color="#000002"/></linearGradient><linearGradient id="linear-gradient-7" x1="230.803" y1="54.235" x2="141.186" y2="105.976" gradientTransform="matrix(1, 0, 0, 1, 0, 0)" gradientUnits="userSpaceOnUse"><stop offset=".156" stop-color="#000"/><stop offset=".195" stop-color="#150b04"/><stop offset=".256" stop-color="#321a09"/><stop offset=".322" stop-color="#48260e"/><stop offset=".393" stop-color="#582f11"/><stop offset=".474" stop-color="#623413"/><stop offset=".586" stop-color="#653614"/><stop offset=".666" stop-color="#613313"/><stop offset=".742" stop-color="#552d10"/><stop offset=".816" stop-color="#42230d"/><stop offset=".889" stop-color="#271507"/><stop offset=".96" stop-color="#050201"/><stop offset=".97" stop-color="#000"/></linearGradient><linearGradient id="linear-gradient-8" x1="96.568" y1="130.979" x2="45.877" y2="101.712" xlink:href="#linear-gradient"/><linearGradient id="linear-gradient-9" x1="74.867" y1="194.644" x2="69.441" y2="191.511" xlink:href="#linear-gradient"/><linearGradient id="linear-gradient-10" x1="100.654" y1="134.87" x2="52.883" y2="107.289" xlink:href="#linear-gradient"/><linearGradient id="linear-gradient-11" x1="109.032" y1="134.206" x2="67.168" y2="110.036" xlink:href="#linear-gradient"/></defs><g id="_1_hair_HippieHair"><path d="M67.717,167.904c-.582,.255-1.174,.494-1.778,.71-.019,.569-.058,1.132-.137,1.676-.16,1.101-.496,2.139-.972,3.119-.248,1.674-.883,3.213-1.841,4.603-1.921,4.072-6.397,7.083-12.105,8.753-1.52,.594-3.15,1.088-4.875,1.463,2.145,.609,4.506,.738,6.798,.086,8.305-2.363,15.233-6.069,19.214-11.437-.432-.789-.814-1.6-1.15-2.427-1.324-2.009-2.388-4.211-3.154-6.547Z" style="fill:url(#linear-gradient); stroke:#000; stroke-miterlimit:10; stroke-width:1.25px;"/><path d="M144.597,68.717c.354,.114,.702,.241,1.049,.369,3.43-1.397,7.196-2.188,11.008-2.188,5.955,0,11.272,1.676,15.516,4.46-1.398-1.312-2.86-2.574-4.435-3.747-8.488-6.321-20.35-10.979-31.873-12.452-12.506-1.598-22.5,4.381-31.419,12.784-3.923,3.696-3.592,7.989-1.26,10.803,1.132-1.303,2.393-2.561,3.802-3.756,10.298-8.734,26.448-11.401,37.614-6.273Z" style="fill:url(#linear-gradient-2); stroke:#000; stroke-miterlimit:10; stroke-width:1.25px;"/><path d="M214.322,111.38c1.008-.575,2.056-1.085,3.135-1.528,.505-.517,1.028-1.02,1.579-1.497-1.637,.47-3.322,.786-5.029,.919-1.209,.184-2.433,.288-3.663,.288-3.729,0-7.194-.767-10.283-2.123-3.878-1.395-7.23-3.697-9.851-6.609-.084,.241-.181,.477-.275,.714,2.043,2.676,3.515,5.766,4.286,9.087,6.457,1.486,13.236,1.655,20.1,.749Z" style="fill:url(#linear-gradient-3); stroke:#000; stroke-miterlimit:10; stroke-width:1.25px;"/><path d="M73.815,205.802c.954-.187,1.867-.429,2.718-.742,2.579-.947,4.483-2.329,5.751-4.001,.789-.838,1.384-1.769,1.809-2.765,1.074,1.102,2.436,2.104,4.015,2.963,.087,.136,.169,.272,.26,.407-3.513,2.613-8.093,4.445-13.421,5.595-1.065-.12-2.117-.188-3.147-.203-.681-.21-1.365-.406-2.052-.578,1.433-.108,2.801-.33,4.067-.676Z" style="fill:url(#linear-gradient-4); stroke:#000; stroke-miterlimit:10; stroke-width:1.25px;"/><path d="M223.446,201.726c-.904,.135-1.783,.219-2.621,.237-2.54,.053-4.565-.389-6.076-1.214-.897-.37-1.638-.861-2.239-1.445-.731,1.078-1.746,2.165-2.987,3.213-.049,.12-.094,.239-.147,.36,3.749,.86,8.293,.872,13.364,.194,.938-.382,1.875-.725,2.804-1.024,.57-.339,1.146-.668,1.731-.982-1.321,.325-2.607,.551-3.828,.661Z" style="fill:url(#linear-gradient-5); stroke:#000; stroke-miterlimit:10; stroke-width:1.25px;"/><path d="M228.755,99.378c-2.993,1.516-6.271,2.496-9.644,2.781-1.602,.135-3.168,.122-4.691-.013-10.11-.267-18.498-6.16-22.499-14.496-2.149-2.547-3.935-5.371-5.124-8.318-.795-.919-.206-1.31-.898-2.322-7.751-4.675-15.354-9.694-23.961-12.313-10.835-3.296-23.989-3.293-35.314,.084-6.272,1.87-10.998,5.64-14.686,10.63,5.09-.044,9.777,1.26,13.754,3.526,4.065-3.159,9.081-5.325,14.366-5.906,6.65-.73,12.767,.813,17.676,3.886,4.174,.422,8.003,1.767,11.31,3.786,3.321,1.342,6.258,3.32,8.677,5.757,2.91,1.786,5.402,4.106,7.339,6.809,1.573,1.491,2.917,3.184,3.997,5.027,1.436,1.595,2.643,3.371,3.566,5.29,3.33,1.38,6.768,2.504,10.386,3.23,10.9,2.189,21.946-1.018,32.076-7.194,2.458-1.498,3.981-3.688,4.748-6.072-1.703,1.221-3.49,2.263-5.323,3.126-1.856,1.11-3.786,2.013-5.753,2.701Z" style="fill:url(#linear-gradient-6); stroke:#000; stroke-miterlimit:10; stroke-width:1.25px;"/><path d="M238.558,79.565c-4.706,5.698-10.809,9.305-17.37,9.448-2.363,.394-4.806,.345-7.282-.218-1.585,.05-3.196-.09-4.822-.463-7.384-1.693-15.479-6.856-20.39-13.826-1.017-.758-.579-1.342-1.527-2.229-8.649-2.807-17.259-6.024-26.104-6.391-11.134-.462-23.47,3.261-33.096,10.073-1.001,.708-1.922,1.48-2.785,2.298,2.688,1.982,5.017,4.527,6.886,7.466,1.447,.432,2.842,1.008,4.176,1.709,3.818-4.28,8.896-7.272,14.392-8.04,3.086-.431,6.075-.218,8.889,.519,5.904,.458,11.25,3.224,15.38,7.484,1.194,.998,2.319,2.097,3.344,3.309,.803,.801,1.564,1.655,2.275,2.561,10.475,3.377,20.752,6.778,31.479,6.046,10.868-.741,20.282-7.293,27.962-16.761,1.863-2.297,2.646-5.069,2.662-7.835-1.237,1.787-2.606,3.406-4.071,4.847Z" style="fill:url(#linear-gradient-7); stroke:#000; stroke-miterlimit:10; stroke-width:1.25px;"/><path d="M120.601,66.734c-12.445-7.803-25.025-12.311-37.159-6.757-11.18,5.117-21.44,14.26-27.596,24.485-4.89,8.123-7.327,17.507-10.119,26.713,.165,1.308,.896,1.217,.915,2.52,2.782,8.003,2.228,17.929-.727,25.427-.651,1.651-1.482,3.168-2.452,4.564-.995,2.511-2.388,4.727-4.094,6.644-3.964,5.811-10.475,9.423-17.864,10.702-2.03,.57-4.148,.962-6.326,1.149,2.256,1.414,4.967,2.143,7.926,1.657,12.196-2.001,23.04-7.062,30.017-16.427,7.29-9.785,10.521-21.509,14.151-33.315,.046-.151,.098-.296,.145-.446,.366-1.964,.905-3.889,1.638-5.749,.131-.332,.279-.651,.423-.972,.168-1.671,.461-3.32,.884-4.936-.158-4.501,.536-8.95,2.166-13.084,1.571-3.985,4.142-7.23,7.38-9.712,9.363-9.522,26.912-10.862,40.896-3.045,1.912,1.069,3.7,2.259,5.374,3.541,1.262-4.137-.104-9.525-5.579-12.957Z" style="fill:url(#linear-gradient-8); stroke:#000; stroke-miterlimit:10; stroke-width:1.25px;"/><path d="M75.237,182.71c-.006,5.071-2.781,10.122-7.25,14.3-1.128,1.271-2.399,2.484-3.807,3.613,2.214-.28,4.419-1.153,6.224-2.814,3.036-2.794,5.669-5.766,7.76-8.878-2.223-3.767-2.3-5.001-2.401-5.304-.182-.301-.356-.608-.526-.917Z" style="fill:url(#linear-gradient-9); stroke:#000; stroke-miterlimit:10; stroke-width:1.25px;"/><path d="M123.602,70.31c-13.649-6.238-26.963-9.298-38.392-2.742-10.531,6.04-19.561,15.852-24.302,26.289-3.766,8.291-4.882,17.547-6.38,26.668,.352,1.239,1.076,1.078,1.282,2.327,3.944,7.404,4.802,16.989,2.895,24.485-.42,1.651-1.041,3.191-1.819,4.629-.644,2.511-1.731,4.779-3.176,6.791-3.164,5.979-9.206,10.103-16.466,12.076-1.964,.752-4.041,1.341-6.208,1.74,2.474,1.13,5.309,1.556,8.22,.792,11.999-3.15,22.2-9.102,27.891-18.797,5.946-10.13,7.528-21.711,9.5-33.412,.025-.15,.056-.294,.082-.443,.088-1.922,.356-3.825,.829-5.685,.084-.332,.188-.653,.288-.976-.069-1.621-.009-3.234,.186-4.828-.801-4.305-.737-8.647,.314-12.781,1.014-3.984,3.14-7.359,6.047-10.068,8.072-10.086,25.558-13.141,40.758-7.045,2.079,.834,4.049,1.796,5.918,2.858,.681-4.099-1.464-9.134-7.468-11.878Z" style="fill:url(#linear-gradient-10); stroke:#000; stroke-miterlimit:10; stroke-width:1.25px;"/><path d="M88.273,129.6c-3.133-4.842-4.794-10.911-4.506-17.264,.166-3.667,1.187-7.112,2.814-10.186,2.959-7.263,9.269-12.825,16.333-14.9,7.567-3.224,17.563-3.984,27.172-1.548,2.041,.517,3.997,1.148,5.871,1.869,.11-3.414-2.529-7.369-8.465-9.138-13.496-4.022-26.275-5.466-36.071,.82-9.027,5.792-16.175,14.555-19.254,23.488-2.445,7.096-2.301,14.771-2.531,22.366,.486,.987,1.139,.798,1.49,1.805,4.615,5.753,6.638,13.54,5.821,19.836-.18,1.387-.561,2.698-1.101,3.939-.279,2.109-1,4.055-2.088,5.82-2.18,5.153-7.275,9.015-13.778,11.213-1.731,.773-3.589,1.422-5.553,1.922,2.446,.729,5.139,.851,7.749-.007,10.762-3.54,19.493-9.233,23.55-17.634,3.02-6.253,3.881-12.934,4.252-19.783-.617-.83-1.183-1.707-1.704-2.617Z" style="fill:url(#linear-gradient-11); stroke:#000; stroke-miterlimit:10; stroke-width:1.25px;"/></g></svg>
