<?xml version="1.0" encoding="UTF-8"?>
<svg xmlns="http://www.w3.org/2000/svg" version="1.1" viewBox="0 0 283.5 283.5">
  <!-- Generator: Adobe Illustrator 29.0.0, SVG Export Plug-In . SVG Version: 2.1.0 Build 186)  -->
  <defs>
    <style>
      .st0 {
        fill: #3fa9f5;
      }

      .st1, .st2, .st3 {
        isolation: isolate;
      }

      .st2 {
        fill: #333;
      }

      .st2, .st3 {
        mix-blend-mode: overlay;
      }

      .st3 {
        fill: #1a1a1a;
      }
    </style>
  </defs>
  <g class="st1">
    <g id="Shirt">
      <path id="BaseShirtColor" class="st0" d="M181.4,172.4c0-.4-.1-.8-.1-1.2-.7-4.4-.7-6,2-6.9.8-.5,2.5-.2,2.9.4l-4.4-24.2c-8.4,6.3-21.3,12.6-32.6,12.6-13.2,0-25.9-5.3-35.2-14.7l-7.2,21.6-1,3.1h2.2c4.7,0,13,6.9,12.5,8.4-1,3.6-2.1,7.6-3,9.3.4.2.7.4,1.1.6,11.4,5.6,21.9,6.4,27.4,6.4,13.1,0,25.9-4.2,36.4-11.8-.4-.6-.6-1.2-.6-1.9-.2-.5-.4-1.1-.4-1.6Z"/>
      <path class="st2" d="M182.6,141.3l-.8-.8c-8.4,6.4-21.3,12.6-32.6,12.6-13.2,0-25.9-5.3-35.2-14.7l-4.4,13.2c8.7,2.5,17.7,4.1,26.7,4.5,21.1,1.3,40.3-5.6,46.3-14.8Z"/>
      <path class="st3" d="M179.1,157.6s-2.9,9.3-20.7,10.1c0,0,13.5,3.2,21.7-4.4l-1.1-5.7Z"/>
      <path class="st3" d="M123.2,159.2s5.1,8.7,23.5,9.5c0,0-13.7,2.7-25-4.6l1.5-4.9Z"/>
      <path d="M103.2,170.6l11.4-34.1-2.3-.8-11,33c.6.7,1.2,1.2,1.8,1.9Z"/>
      <path d="M182.9,175.6l-3.1-19-1.7,2.8,2.8,17.6c.7-.4,1.4-.9,2.1-1.4Z"/>
      <path d="M189.2,170.3l-5.8-31.4-2.3.6,6.1,32.7c.7-.6,1.4-1.2,2.1-1.9Z"/>
      <polygon points="117.2 180.7 123.3 159.2 124.6 161.1 120.6 182.5 117.2 180.7"/>
    </g>
  </g>
</svg>