<?xml version="1.0" encoding="UTF-8"?>
<svg id="shirt" xmlns="http://www.w3.org/2000/svg" version="1.1" viewBox="0 0 283.5 283.5">
  <!-- Generator: Adobe Illustrator 29.0.0, SVG Export Plug-In . SVG Version: 2.1.0 Build 186)  -->
  <defs>
    <style>
      .st0 {
        fill: #f68929;
      }

      .st1, .st2, .st3, .st4 {
        isolation: isolate;
      }

      .st1, .st4, .st5 {
        display: none;
      }

      .st6 {
        fill: #f68926;
      }

      .st2, .st4 {
        fill: #635f66;
        mix-blend-mode: overlay;
      }
    </style>
  </defs>
  <g class="st3">
    <g id="Layer_1" class="st5">
      <g class="st1">
        <g id="_2_skin" class="st5">
          <g id="Skin" class="st5">
            <path id="EdgeBg" class="st5" d="M226,168.8l-15.9-2.5c-.4-3-1.2-8.2-2.6-15-1.2-5.9-7.6-36.1-18-51.5,0,0-16.7-25.4-47.8-33.1-13.5-1.1-46.8-.5-69.6,28.2-29.1,36.8,3.7,91.8,14,105.4l.8,1h0c.8.9,1.6,1.8,2.4,2.7h0l-16.3,49c17.7,18.9,42.8,30.7,70.7,30.7s51-10.8,68.5-28.3l-8.6-46.5c11-10.6,18.6-24,22.1-38.8l.3-1.5h0v.2Z"/>
            <g id="SkinColor" class="st5">
              <g id="___Heads" class="st5">
                <path id="_0_head" class="st6" d="M150.5,178.5c-.9.3-4.6,4-5.5,4.3,3-1.1,2,1.4,3.5,0,7.8-2.2-2.9-.5,8-1.3,3.6-1.9,23.9-4.4,27.6-5.1,5.1-.9,7.4-2.8,10-1.5-.1-.7,7.5-.8,8-1.3-4.9,7.1,3.7-.9,3.7-.9l.3-.3c.3-.3,0,1,.7,1s-1.7-7.1-1.6-7.1c-.4-2.9-1.2-7.8-2.4-14-1.8-9-3.7-20.8-7.2-30.8-.7-5-3.2-11.3-7.4-17.7-49.3-75.9-108.3-17.3-115.8-4.5-.7,1.9-1.8,3.6-3.1,5.1,0,0-.4.6-.8,1-.3.4-.7.9-.8,1.1-.7,1.1-1.3,2.2-1.9,3.3v.3c-.3,1-.7,1.8-1.2,2.7.5,1.5.9,3.1.9,5,0,10-.9,19.8-1.4,29.8-.5,8.9,3.5,14.2,8.7,21,.8,1,1.3,2.1,1.6,3.3,2,.1,3.4,1.2,4.1,2.7h0c1.4-.4-3.4-.8,12,23.8,13.4,16.9,36.2,27.7,59.2,27.7,32.8,0,61.3-23,70.5-53.2-35-5.3-53.8.9-69.7,5.5h-.1Z"/>
              </g>
            </g>
            <g id="Shading" class="st5">
              <path id="HeadBackShading" class="st4" d="M158.5,222.7c-21,0-39.6-8.8-54.8-22.7-8.8-8.1-14.7-18.5-18.3-29.8-10.3-13.4-15-30.5-15.8-47.2,0-3.5,0-6.9.5-10.2l-.2-.2s-27.4,45.5,27.4,93.2c31.4,27.3,64.7,22.9,85.9,15.4-.7-.6-1.5-1.3-2.2-1.9-7.3,2.3-14.9,3.5-22.4,3.5h-.1Z"/>
            </g>
            <g id="EdgeFixes" class="st5">
              <path class="st5" d="M220.6,169.3c-7.8,32.5-37,56.8-71.9,56.8s-45-11.4-58.6-28.9c-.9.9-2.3,3.1-3.4,3.7,14.2,18.5,36.8,30,61.8,29.9,39-.2,69.7-25.1,75.8-60.9l-3.7-.6h0Z"/>
              <path class="st5" d="M130.2,64.2c-38.8,0-70.2,31.9-70.2,71.2s4.6,28.8,11,39.5c3.3,1.3,4.5.9,6.6,1.2v-.2c-.3-.8-.4-1.6-.3-2.4-7.5-10.7-11.5-23.9-11.5-38,0-36,28.8-65.3,64.4-65.3s49.7,16.6,59.4,40.2c1.6-.8,2.5-1.1,4.7-1.1-10.4-26.2-34.6-45-64.1-45h0Z"/>
              <path class="st5" d="M73.2,167s8.5,19.6,19.9,33.7l-4.9,1.2s-16.8-29.3-18.2-33.5l3.2-1.4h0Z"/>
              <path class="st5" d="M205.1,166.7c1.3,0,2.6.2,3.9.3-.5-3.1-1.2-7.9-2.4-14-1-5.1-8.6-42.2-20.9-56.2-.8.9-1.6.3-2.7,1,7.5,10.4,16.4,37.8,19.9,55.9,1.1,5.4,1.8,9.8,2.3,12.9h-.1Z"/>
            </g>
          </g>
          <g id="Nose" class="st5">
            <path d="M163.5,149.5s-14.2,4-5.4,9,5.4-9,5.4-9Z"/>
            <path d="M168.3,148.6s13.5-.8,7.3,6.1-7.3-6.1-7.3-6.1Z"/>
          </g>
        </g>
      </g>
    </g>
    <g id="Shirt">
      <path class="st0" d="M198,256.4c-.8-1.7-.3-6.1-.3-7.7,0-4.9,4.7-7.5,7.5-5.8l-5.8-32.4c-13,9.9-33.1,19.6-50.7,19.6s-40.8-8.8-54.9-22.9l-13.3,38.4c2.9-1.5,8.8-.8,12,0,9.5,2.4,12.2,6.8,11.6,14.3,0,1.5-1.9,7.6-2.4,8.8v.5c-.1,1.7-.6,3.2-1.2,4.6,13,6.5,27.7,10.2,43.3,10.2s41-6.9,57-18.6c-.8-1-1.2-2.9-1.5-4.7-.7-1.3-1.1-2.8-1.3-4.2Z"/>
      <path id="RightChestShading" class="st2" d="M108.5,239.7s7.9,13.2,36.3,14.4c0,0-21.2,4.1-38.6-7l2.3-7.5h0Z"/>
      <path id="LeftChestShading" class="st2" d="M195.2,237.3s-4.5,14.1-32.2,15.3c0,0,21,4.8,33.8-6.6l-1.7-8.7h0Z"/>
      <path id="HeadUnderShading" class="st2" d="M200.7,211.5l-1.2-1.2c-13,9.9-33.1,19.6-50.7,19.6s-40.8-8.8-54.9-22.9l-6.9,20.6c12,3.7,26.1,6,41.6,7,33,2,62.9-8.7,72.2-23h-.1Z"/>
      <path d="M201.2,265l-4.8-29.5-2.7,4.4,4.3,27.5c1.1-.7,2.1-1.5,3.2-2.3h0Z"/>
      <path d="M211,256.7l-9-48.9-3.6.9,9.4,51c1.1-1,2.2-2,3.2-3h0Z"/>
      <polygon points="98.9 272.9 108.3 239.3 110.3 242.3 104.2 275.6 98.9 272.9"/>
      <path d="M77,257.2l17.8-53.1-3.5-1.2-17.1,51.4c.9,1,1.9,1.9,2.9,2.9h-.1Z"/>
    </g>
  </g>
</svg>