<?xml version="1.0" encoding="UTF-8"?><svg xmlns="http://www.w3.org/2000/svg" xmlns:xlink="http://www.w3.org/1999/xlink" viewBox="0 0 283.46 283.46"><defs><linearGradient id="linear-gradient" x1="272.708" y1="14.816" x2="257.714" y2="61.672" gradientTransform="translate(169.276 -36.977) rotate(86.466) scale(.931 .736) skewX(-14.855)" gradientUnits="userSpaceOnUse"><stop offset="0" stop-color="#1a3d0f" stop-opacity="0"/><stop offset=".909" stop-color="#1a3d0f" stop-opacity=".905"/><stop offset="1" stop-color="#1a3d0f"/></linearGradient><linearGradient id="linear-gradient-2" x1="151.094" y1="20.821" x2="136.1" y2="67.677" gradientTransform="translate(251.246 42.545) rotate(142.288) scale(.931 .736) skewX(-14.855)" xlink:href="#linear-gradient"/><linearGradient id="linear-gradient-3" x1="154.822" y1="79.576" x2="136.439" y2="137.024" gradientTransform="translate(103.683 -37.509) rotate(54.514) scale(.931 .736) skewX(-14.855)" xlink:href="#linear-gradient"/><linearGradient id="linear-gradient-4" x1="300.855" y1="107.418" x2="282.472" y2="164.865" gradientTransform="translate(103.683 -37.509) rotate(54.514) scale(.931 .736) skewX(-14.855)" xlink:href="#linear-gradient"/><linearGradient id="linear-gradient-5" x1="8.287" y1="51.862" x2="-6.703" y2="98.704" gradientTransform="translate(70.578 198.826) rotate(-85.106)" xlink:href="#linear-gradient"/><linearGradient id="linear-gradient-6" x1="28.216" y1="80.754" x2="13.227" y2="127.596" gradientTransform="translate(70.578 198.826) rotate(-85.106)" xlink:href="#linear-gradient"/><linearGradient id="linear-gradient-7" x1="125.934" y1="-153.711" x2="116.428" y2="-124.002" gradientTransform="translate(285.408 110.104) rotate(169.517)" xlink:href="#linear-gradient"/><linearGradient id="linear-gradient-8" x1="142.073" y1="-121.263" x2="124.922" y2="-67.666" gradientTransform="translate(285.408 110.104) rotate(169.517)" xlink:href="#linear-gradient"/><linearGradient id="linear-gradient-9" x1="49.239" y1="-67.438" x2="37.874" y2="-31.923" gradientTransform="translate(238.827 184.787) rotate(-155.639)" xlink:href="#linear-gradient"/><linearGradient id="linear-gradient-10" x1="153.167" y1="15.866" x2="143.616" y2="45.713" gradientTransform="translate(238.827 184.787) rotate(-155.639)" xlink:href="#linear-gradient"/><linearGradient id="linear-gradient-11" x1="172.2" y1="5.432" x2="162.649" y2="35.278" gradientTransform="translate(238.827 184.787) rotate(-155.639)" xlink:href="#linear-gradient"/><linearGradient id="linear-gradient-12" x1="25.442" y1="-114.475" x2="15.891" y2="-84.629" gradientTransform="translate(276.052 240.712) rotate(-113.787)" xlink:href="#linear-gradient"/><linearGradient id="linear-gradient-13" x1="56.796" y1="-59.967" x2="47.245" y2="-30.121" gradientTransform="translate(238.827 184.787) rotate(-155.639)" xlink:href="#linear-gradient"/><linearGradient id="linear-gradient-14" x1="159.673" y1="38.834" x2="150.167" y2="68.543" gradientTransform="translate(285.408 110.104) rotate(169.517)" xlink:href="#linear-gradient"/><linearGradient id="linear-gradient-15" x1="177.571" y1="21.996" x2="168.064" y2="51.705" gradientTransform="translate(285.408 110.104) rotate(169.517)" xlink:href="#linear-gradient"/><linearGradient id="linear-gradient-16" x1="118.421" y1="9.418" x2="108.825" y2="39.406" gradientTransform="translate(137.216 211.552) rotate(-125.673)" xlink:href="#linear-gradient"/><linearGradient id="linear-gradient-17" x1="107.796" y1="-79.415" x2="98.289" y2="-49.707" gradientTransform="translate(285.408 110.104) rotate(169.517)" xlink:href="#linear-gradient"/><linearGradient id="linear-gradient-18" x1="225.545" y1="-65.655" x2="212.854" y2="-25.996" gradientTransform="translate(259.382 -20.788) rotate(114.769)" xlink:href="#linear-gradient"/><linearGradient id="linear-gradient-19" x1="280.028" y1="-4.065" x2="256.208" y2="70.373" gradientTransform="translate(234.529 -39.041) rotate(102.187)" xlink:href="#linear-gradient"/><linearGradient id="linear-gradient-20" x1="82.772" y1="71.463" x2="63.285" y2="132.359" gradientTransform="translate(5.847 -3.792) rotate(-3.094)" xlink:href="#linear-gradient"/><linearGradient id="linear-gradient-21" x1="135.818" y1="48.986" x2="116.235" y2="110.183" gradientTransform="translate(50.562 -59.205) rotate(28.773)" xlink:href="#linear-gradient"/><linearGradient id="linear-gradient-22" x1="240.219" y1="109.88" x2="216.451" y2="184.155" gradientTransform="translate(-37.768 2.541) rotate(6.65)" xlink:href="#linear-gradient"/><linearGradient id="linear-gradient-23" x1="-55.833" y1="11.724" x2="-70.822" y2="58.566" gradientTransform="translate(69.581 280.367) rotate(-134.879) scale(.656 .752) skewX(35.202)" gradientUnits="userSpaceOnUse"><stop offset="0" stop-color="#1a3d0f" stop-opacity="0"/><stop offset=".909" stop-color="#1a3d0f" stop-opacity=".905"/><stop offset="1" stop-color="#1a3d0f"/></linearGradient><linearGradient id="linear-gradient-24" x1="-61.495" y1="19.575" x2="-76.485" y2="66.417" gradientTransform="translate(81.223 233.122) rotate(-92.609) scale(.534 .579) skewX(10.419)" xlink:href="#linear-gradient-23"/><linearGradient id="linear-gradient-25" x1="14.964" y1="-116.117" x2="3.599" y2="-80.602" gradientTransform="translate(245.448 222.819) rotate(-125.298) scale(.707 .758) skewX(8.583)" xlink:href="#linear-gradient-23"/></defs><g style="isolation:isolate;"><g id="_3_accent"><g id="_0_scales" style="opacity:.65;"><path d="M146.169,200.964l-2.717-1.9c-1.363-.953-2.03-3.037-1.382-4.317l2.075-4.096c.839-1.657,3.255-.439,3.677,1.853l1.15,6.251c.394,2.143-1.153,3.362-2.802,2.209Z" style="fill:url(#linear-gradient); mix-blend-mode:overlay; opacity:.5;"/><path d="M129.468,83.425l.045-3.315c.023-1.663,1.372-3.386,2.796-3.569l4.554-.585c1.842-.236,2.192,2.446,.532,4.083l-4.526,4.463c-1.552,1.53-3.429,.935-3.401-1.077Z" style="fill:url(#linear-gradient-2); mix-blend-mode:overlay; opacity:.5;"/><path d="M91.405,102.769l-4.067-.232c-2.04-.116-4.098-1.853-4.262-3.599l-.527-5.585c-.213-2.259,3.094-2.543,5.033-.432l5.287,5.757c1.813,1.974,1.004,4.232-1.465,4.091Z" style="fill:url(#linear-gradient-3); mix-blend-mode:overlay; opacity:.35;"/><path d="M149.666,219.781l-4.067-.232c-2.04-.116-4.098-1.853-4.262-3.599l-.527-5.585c-.213-2.259,3.094-2.543,5.033-.432l5.287,5.757c1.813,1.974,1.004,4.232-1.465,4.091Z" style="fill:url(#linear-gradient-4); mix-blend-mode:overlay; opacity:.35;"/><path d="M158.807,203.657l3.401,1.582c1.706,.794,2.252,2.934,1.131,4.434l-3.588,4.799c-1.451,1.941-4.56,1.045-4.73-1.364l-.466-6.569c-.16-2.252,2.187-3.843,4.252-2.883Z" style="fill:url(#linear-gradient-5); mix-blend-mode:overlay; opacity:.7;"/><path d="M189.294,186.265l3.401,1.582c1.706,.794,2.252,2.934,1.131,4.434l-3.588,4.799c-1.451,1.941-4.56,1.045-4.73-1.364l-.466-6.569c-.16-2.252,2.187-3.843,4.252-2.883Z" style="fill:url(#linear-gradient-6); mix-blend-mode:overlay;"/><path d="M188.742,260.784l.409-2.344c.205-1.176,1.447-1.873,2.572-1.442l3.6,1.376c1.456,.557,1.425,2.606-.048,3.119l-4.016,1.399c-1.377,.479-2.767-.683-2.518-2.106Z" style="fill:url(#linear-gradient-7); mix-blend-mode:overlay; opacity:.5;"/><path d="M166.326,213.015l.739-4.23c.371-2.122,2.611-3.378,4.641-2.602l6.495,2.482c2.627,1.004,2.571,4.701-.086,5.627l-7.246,2.523c-2.484,.865-4.992-1.233-4.543-3.8Z" style="fill:url(#linear-gradient-8); mix-blend-mode:overlay; opacity:.7;"/><path d="M182.65,202.545l1.69-1.693c.848-.849,2.269-.719,2.944,.271l2.16,3.165c.874,1.28-.335,2.944-1.84,2.533l-4.104-1.123c-5.551-1.519-3.008-.991-.85-3.153Z" style="fill:url(#linear-gradient-9); mix-blend-mode:overlay;"/><path d="M118.621,87.445l1.69-1.693c.848-.849,2.269-.719,2.944,.271l2.16,3.165c.874,1.28-.335,2.944-1.84,2.533l-4.104-1.123c-1.407-.385-1.876-2.125-.85-3.153Z" style="fill:url(#linear-gradient-10); mix-blend-mode:overlay; opacity:.8;"/><path d="M96.978,89.099l1.69-1.693c.848-.849,2.269-.719,2.944,.271l2.16,3.165c.874,1.28-.335,2.944-1.84,2.533l-4.104-1.123c-1.407-.385-1.876-2.125-.85-3.153Z" style="fill:url(#linear-gradient-11); mix-blend-mode:overlay; opacity:.8;"/><path d="M183.707,257.448l2.388-.133c1.198-.067,2.169,.978,2.012,2.166l-.502,3.799c-.203,1.536-2.214,1.97-3.06,.659l-2.308-3.574c-.791-1.225,.02-2.835,1.47-2.916Z" style="fill:url(#linear-gradient-12); mix-blend-mode:overlay; opacity:.8;"/><path d="M175.13,196.279l1.69-1.693c.848-.849,2.269-.719,2.944,.271l2.16,3.165c.874,1.28-.335,2.944-1.84,2.533l-4.104-1.123c-1.407-.385-1.876-2.125-.85-3.153Z" style="fill:url(#linear-gradient-13); mix-blend-mode:overlay; opacity:.8;"/><path d="M120.533,77.591l.409-2.344c.205-1.176,1.447-1.873,2.572-1.442l3.6,1.376c1.456,.557,1.425,2.606-.048,3.119l-4.016,1.399c-1.377,.479-2.767-.683-2.518-2.106Z" style="fill:url(#linear-gradient-14); mix-blend-mode:overlay;"/><path d="M105.998,97.404l.409-2.344c.205-1.176,1.447-1.873,2.572-1.442l3.6,1.376c1.456,.557,1.425,2.606-.048,3.119l-4.016,1.399c-1.377,.479-2.767-.683-2.518-2.106Z" style="fill:url(#linear-gradient-15); mix-blend-mode:overlay;"/><path d="M96.836,99.151l2.318-.631c1.163-.317,2.328,.499,2.414,1.689l.274,3.809c.111,1.541-1.777,2.385-2.872,1.285l-2.988-3.001c-1.024-1.029-.553-2.768,.854-3.151Z" style="fill:url(#linear-gradient-16); mix-blend-mode:overlay; opacity:.65;"/><path d="M193.06,184.428l.409-2.344c.205-1.176,1.447-1.873,2.572-1.442l3.6,1.376c1.456,.557,1.425,2.606-.048,3.119l-4.016,1.399c-1.377,.479-2.767-.683-2.518-2.106Z" style="fill:url(#linear-gradient-17); mix-blend-mode:overlay;"/><path d="M198.43,194.318l-2.255-2.236c-1.131-1.122-.943-2.987,.391-3.865l4.267-2.808c1.726-1.136,3.947,.468,3.381,2.441l-1.545,5.381c-.53,1.845-2.869,2.445-4.238,1.088Z" style="fill:url(#linear-gradient-18); mix-blend-mode:overlay;"/><path d="M124.614,214.66l-5.044-3.176c-2.531-1.594-2.955-5.08-.879-7.223l6.641-6.856c2.686-2.773,7.408-.738,7.186,3.097l-.606,10.459c-.208,3.586-4.236,5.627-7.298,3.699Z" style="fill:url(#linear-gradient-19); mix-blend-mode:overlay; opacity:.25;"/><path d="M87.815,110.827l-1.456,4.656c-.731,2.336-3.439,3.427-5.61,2.26l-6.948-3.734c-2.81-1.51-2.201-5.666,.927-6.324l8.532-1.794c2.925-.615,5.439,2.109,4.555,4.936Z" style="fill:url(#linear-gradient-20); mix-blend-mode:overlay; opacity:.65;"/><path d="M116.794,87.374l-3.721,3.194c-1.867,1.603-4.749,1.114-5.97-1.012l-3.909-6.801c-1.581-2.751,1.154-5.962,4.161-4.886l8.204,2.934c2.812,1.006,3.494,4.633,1.235,6.572Z" style="fill:url(#linear-gradient-21); mix-blend-mode:overlay; opacity:.65;"/><path d="M172.724,195.892l-2.724,5.292c-1.367,2.655-4.83,3.423-7.175,1.591l-7.504-5.861c-3.035-2.37-1.428-7.231,2.445-7.396l10.565-.451c3.622-.155,6.046,3.612,4.393,6.825Z" style="fill:url(#linear-gradient-22); mix-blend-mode:overlay; opacity:.72;"/></g><path d="M107.946,267.546l1.322-2.427c.663-1.218,1.779-.872,2.311,.717l1.702,5.083c.688,2.056-.257,4.489-1.438,3.702l-3.223-2.145c-1.105-.735-1.477-3.456-.674-4.93Z" style="fill:url(#linear-gradient-23); mix-blend-mode:overlay; opacity:.7;"/><path d="M115.037,261.922l2.055,.248c1.031,.124,1.499,1.146,.969,2.118l-1.694,3.108c-.685,1.257-2.523,1.317-2.797,.092l-.746-3.343c-.256-1.146,.966-2.372,2.213-2.222Z" style="fill:url(#linear-gradient-24); mix-blend-mode:overlay; opacity:.7;"/><path d="M192.498,263.519l1.591-.691c.798-.346,1.609,.186,1.68,1.103l.227,2.934c.092,1.187-1.2,2.005-1.966,1.246l-2.089-2.071c-2.826-2.802-1.474-1.639,.557-2.521Z" style="fill:url(#linear-gradient-25); mix-blend-mode:overlay;"/></g></g></svg>