<?xml version="1.0" encoding="UTF-8"?><svg xmlns="http://www.w3.org/2000/svg" viewBox="0 0 283.46 283.46"><defs><style>.cls-1{fill:#f68926;}.cls-2{fill:#f68929;}.cls-3{isolation:isolate;}.cls-4{fill:#635f66;mix-blend-mode:overlay;}</style></defs><g class="cls-3"><g id="_2_skin"><g id="Skin"><path id="EdgeBg" d="M226.03,168.81l-15.874-2.475c-.426-2.991-1.247-8.219-2.612-14.984-1.172-5.904-7.565-36.137-18.038-51.474,0,0-16.726-25.395-47.845-33.068-13.498-1.108-46.838-.499-69.609,28.212-29.147,36.75,3.661,91.805,13.964,105.367l.783,1.002,.041-.024c.771,.931,1.58,1.831,2.39,2.731l.068,.078-16.31,48.94c17.691,18.885,42.796,30.734,70.717,30.734,26.741,0,50.952-10.823,68.499-28.324l-8.597-46.461c10.957-10.609,18.585-24.006,22.075-38.788l.348-1.466Z"/><g id="SkinColor"><g id="___Bodies"><path id="_0_body" class="cls-2" d="M143.706,283.849c24.655,0,47.147-9.215,64.261-24.368l-8.518-49.182c-13.015,9.889-33.146,19.609-50.735,19.609-21.469,0-40.844-8.821-54.923-22.939l-16.821,50.182c17.386,16.521,40.855,26.697,66.735,26.697Z"/></g><g id="___Heads"><path id="_0_head" class="cls-1" d="M150.52,178.472c-.896,.262-4.595,4.042-5.481,4.297,3.04-1.1,2.046,1.374,3.462,0,7.767-2.195-2.929-.451,7.962-1.269,3.553-1.9,23.915-4.418,27.577-5.077,5.068-.898,7.387-2.821,10.038-1.5-.119-.673,7.477-.791,7.962-1.269-4.89,7.133,3.686-.916,3.692-.923,.018-.017,.327-.33,.346-.346,.321-.338,.087,1.038,.692,1.038,.088,0-1.681-7.061-1.599-7.052-.422-2.927-1.192-7.8-2.427-14.01-1.758-8.974-3.653-20.782-7.151-30.768-.708-4.957-3.184-11.289-7.351-17.701-49.316-75.894-108.311-17.319-115.832-4.531-.711,1.853-1.77,3.561-3.119,5.148-.104,.122-.45,.552-.781,.962-.295,.416-.662,.927-.772,1.096-.7,1.07-1.309,2.184-1.879,3.322-.029,.089-.067,.174-.095,.264-.308,.968-.744,1.836-1.201,2.683,.526,1.486,.873,3.121,.861,4.997-.064,9.971-.899,19.817-1.408,29.759-.453,8.856,3.507,14.209,8.685,21.038,.769,1.015,1.288,2.144,1.616,3.329,2.037,.102,3.39,1.23,4.052,2.7l.102-.011c1.369-.355-3.411-.751,11.987,23.826,13.399,16.897,36.245,27.702,59.243,27.702,32.783,0,61.297-23.008,70.498-53.225-34.965-5.29-53.812,.884-69.68,5.523Z"/></g></g><g id="Shading"><path id="RightChestShading" class="cls-4" d="M108.471,239.654s7.878,13.23,36.301,14.446c0,0-21.214,4.055-38.618-6.995l2.317-7.451Z"/><path id="LeftChestShading" class="cls-4" d="M195.195,237.346s-4.461,14.106-32.163,15.315c0,0,21.01,4.836,33.823-6.65l-1.66-8.665Z"/><path id="HeadUnderShading" class="cls-4" d="M200.694,211.545l-1.245-1.245c-13.015,9.889-33.146,19.609-50.735,19.609-21.468,0-40.844-8.821-54.923-22.939l-6.916,20.634c11.995,3.746,26.123,6.048,41.608,6.974,32.993,1.971,62.874-8.715,72.211-23.033Z"/><path id="HeadBackShading" class="cls-4" d="M158.481,222.654c-20.999,0-39.638-8.78-54.801-22.699-8.838-8.113-14.747-18.532-18.338-29.764-10.317-13.35-15.037-30.516-15.784-47.191-.132-3.494,.024-6.909,.455-10.249l-.23-.222s-27.431,45.529,27.425,93.226c31.369,27.275,64.652,22.896,85.871,15.356-.738-.647-1.476-1.294-2.214-1.941-7.327,2.264-14.926,3.482-22.384,3.482Z"/></g><g id="EdgeFixes"><path d="M220.625,169.335c-7.796,32.542-37.012,56.839-71.911,56.839-23.853,0-45.048-11.38-58.607-28.942-.876,.86-2.316,3.11-3.437,3.731,14.24,18.477,36.758,30.014,61.836,29.881,39.011-.208,69.721-25.108,75.802-60.888l-3.683-.62Z"/><path d="M130.19,64.185c-38.765,0-70.19,31.867-70.19,71.177,0,13.468,4.63,28.757,11.039,39.496,3.304,1.34,4.501,.889,6.633,1.172,0-.071,.01-.141,.014-.212-.288-.761-.404-1.593-.345-2.412-7.461-10.707-11.509-23.91-11.509-38.044,0-36.044,28.814-65.263,64.359-65.263,26.785,0,49.733,16.599,59.424,40.201,1.626-.816,2.545-1.062,4.726-1.127-10.353-26.211-34.603-44.987-64.15-44.987Z"/><path d="M73.188,167s8.456,19.56,19.879,33.702l-4.914,1.189s-16.824-29.253-18.152-33.482l3.188-1.41Z"/><path d="M205.148,166.664c1.289,.085,2.574,.193,3.852,.336-.452-3.085-1.221-7.882-2.422-13.958-.999-5.119-8.567-42.21-20.855-56.166-.833,.934-1.606,.326-2.723,.986,7.508,10.4,16.352,37.755,19.894,55.934,1.069,5.403,1.795,9.816,2.254,12.869Z"/><path d="M76.971,257.152l17.802-53.109-3.546-1.182-17.139,51.422c.944,.975,1.9,1.934,2.883,2.869Z"/><polygon points="98.875 272.857 108.303 239.299 110.326 242.256 104.155 275.603 98.875 272.857"/><path d="M210.984,256.689l-9.045-48.879-3.628,.88,9.434,50.984c1.102-.97,2.181-1.966,3.239-2.985Z"/><path d="M201.214,264.955l-4.774-29.547-2.698,4.358,4.272,27.464c1.085-.734,2.147-1.499,3.2-2.275Z"/></g></g><g id="Nose"><path d="M163.484,149.47s-14.238,3.981-5.362,8.952c8.876,4.971,5.362-8.952,5.362-8.952Z"/><path d="M168.337,148.641s13.499-.808,7.308,6.14c-6.191,6.948-7.308-6.14-7.308-6.14Z"/></g></g></g></svg>