<?xml version="1.0" encoding="UTF-8"?><svg id="_4_chest" xmlns="http://www.w3.org/2000/svg" viewBox="0 0 283.46 283.46"><g id="TankTops_"><g id="Black_Tanktop" style="isolation:isolate;"><path d="M196.558,257.423c-.038-.847-1.53-8.857-1.5-9.692-.865-6.288-.635-3.519-1.327-8.077-3.557-4.226-6.462-12.346-4.709-19.111-13.637,6.534-24.985,13.69-38.502,12.65-7.894-.607-17.017-2.87-25.154-5.827-2.063-.211-8.02-2.562-9.75-3.462,3,7.154-.719,13.535-5.25,17.942,.005,.096-1.252,6.944-1.269,7.038-1.211,6.692,.462-2.712-4.904,26.712,11.942,4.5,21.254,8.097,38.308,8.135,25.904,.058,40.904-6.865,55.615-16.558-.692-3.865-1.357-5.279-1.558-9.75Z" style="fill:#151616;"/></g></g><g id="Logo"><g><line x1="139.538" y1="253.231" x2="178.135" y2="249.25" style="fill:#fff;"/><path d="M139.538,253.231c1.565-.58,3.143-1.04,4.721-1.502l4.826-.488,9.649-.995,9.649-.995,4.825-.498c1.639,.136,3.278,.264,4.927,.497-1.567,.565-3.145,1.024-4.722,1.492l-4.825,.498-9.649,.995-9.649,.995-4.824,.508c-1.639-.131-3.277-.258-4.928-.507,0,0,1.651,.249,0,0Z" style="fill:#fff;"/></g><path d="M147.154,241.378c1.398,.256,2.332,.927,3.13,2.043l2.38,2.703c.781,.892,2.813,3.192,3.57,4.055,.169,.651,.344,1.297,.439,2.013-.698-.186-1.316-.441-1.941-.691-.749-.851-2.793-3.173-3.57-4.055l-2.38-2.704c-1.004-.932-1.554-1.947-1.629-3.364h0Z" style="fill:#fff;"/><path d="M164.989,239.134c.406,1.307,.251,2.384-.378,3.545l-1.302,3.165c-.432,1.041-1.536,3.739-1.954,4.747-.498,.412-.988,.827-1.576,1.202-.154-.68-.21-1.32-.274-1.963,.408-.998,1.53-3.713,1.954-4.747l1.302-3.165c.37-1.265,1.02-2.144,2.227-2.784h0Z" style="fill:#fff;"/><path d="M139.528,258.945c1.59-.602,3.194-1.082,4.797-1.566l4.914-.553,9.825-1.126,9.825-1.126,4.912-.563c1.672,.114,3.343,.22,5.026,.431-1.592,.586-3.196,1.067-4.799,1.556l-4.912,.563-9.825,1.126-9.825,1.126-4.911,.573c-1.671-.109-3.342-.214-5.027-.441,0,0,1.685,.226,0,0Z" style="fill:#fff;"/><path d="M157.885,256.346c.198,1.569-.195,2.844-1.016,4.138l-1.904,3.678-1.904,3.678-.952,1.839c-.587,.473-1.167,.951-1.84,1.379-.039-.797,.016-1.546,.064-2.299l.952-1.839,1.904-3.678,1.904-3.678c.581-1.415,1.398-2.476,2.792-3.218h0Z" style="fill:#fff;"/><path d="M170.173,267.769c-1.466-.251-2.474-.949-3.363-2.079l-2.64-2.769-2.639-2.769-1.32-1.385c-.22-.671-.446-1.336-.596-2.075,.73,.185,1.384,.443,2.044,.695l1.32,1.385,2.639,2.769,2.639,2.769c1.085,.941,1.737,1.984,1.916,3.459h0Z" style="fill:#fff;"/></g></svg>