<?xml version="1.0" encoding="UTF-8"?><svg id="_4_mouth" xmlns="http://www.w3.org/2000/svg" viewBox="0 0 283.46 283.46"><g id="_4_mouth_OG"><path id="_0_lipbottom" d="M223.963,168.189c-25.664-4.489-48.32-.766-82.598,12.031-13.757,5.136-24.808,3.478-31.951-1.981-6.281-4.799-8.116-12.208-8.642-15.603-.016-.104-.131-.12-.19-.036-.324,.465-.837,.784-1.539,.784-.049,0-.092-.012-.139-.015-.268,.209-.596,.352-.999,.38-.214,.091-.457,.143-.733,.143-.061,0-.114-.014-.172-.018,.726,4.251,2.999,12.224,10.076,17.654,4.75,3.647,10.765,5.473,17.979,5.473,5.177,0,11.013-.796,17.362-2.823,40.876-13.051,61.51-12.567,80.612-8.782,2.115,.419,4.054-1.378,3.968-3.722-.065-1.776-1.417-3.202-3.035-3.485Z"/><path id="_0_liptop" d="M223.925,166.678c-25.318-4.082-47.667-.696-81.483,10.942-13.571,4.671-24.473,3.164-31.52-1.802-6.196-4.365-8.006-11.103-8.525-14.191-.01-.06-.058-.075-.107-.067-.26,.529-.751,.929-1.469,1.004-.249,.253-.578,.437-.992,.506-.277,.178-.619,.288-1.03,.293,.833,3.981,3.185,10.754,9.817,15.447,4.685,3.317,10.619,4.978,17.737,4.978,5.107,0,10.865-.724,17.128-2.568,40.324-11.87,60.68-11.429,79.524-7.987,2.086,.381,3.999-1.253,3.915-3.385-.064-1.615-1.398-2.912-2.994-3.169Z"/><g id="Corner"><path d="M103.399,155.538c-1.521,3.058-4.646,5.179-8.293,5.179-1.039,0-1.997-.242-2.914-.573-.069,1.174-.255,2.307-.553,3.403,1.106,.322,2.254,.549,3.468,.549,5.236,0,9.728-3.177,11.659-7.708-1.125-.273-2.246-.56-3.366-.85Z"/></g></g></svg>