<?xml version="1.0" encoding="UTF-8"?>
<svg id="deruptar-ring" xmlns="http://www.w3.org/2000/svg" version="1.1" xmlns:xlink="http://www.w3.org/1999/xlink" viewBox="0 0 283.5 283.5">

  <defs>
    <style>
      .st0 {
        fill: #78726f;
      }

      .st1 {
        fill: #e9e2d8;
      }

      .st2 {
        fill: #47b649;
      }

      .st3 {
        fill: #bfc0c1;
      }

      .st4 {
        fill: url(#linear-gradient2);
      }

      .st5 {
        fill: #f3b424;
      }

      .st6 {
        fill: #5e3c33;
      }

      .st7 {
        fill: #3a1907;
      }

      .st8 {
        fill: #403321;
      }

      .st9 {
        fill: #fbf1b5;
      }

      .st10 {
        fill: #645b5f;
      }

      .st11 {
        fill: #c84a22;
      }

      .st12 {
        fill: #f8a01f;
      }

      .st13 {
        fill: #f17b36;
      }

      .st14 {
        fill: #9d8a72;
      }

      .st15 {
        fill: #dfcfbe;
      }

      .st16 {
        fill: #f9d537;
      }

      .st17 {
        fill: #a3acaf;
      }

      .st18 {
        fill: #fbfd18;
      }

      .st19 {
        fill: #754133;
      }

      .st20 {
        fill: #fed51b;
      }

      .st21 {
        fill: #b7a594;
      }

      .st22 {
        fill: #b1afae;
      }

      .st23 {
        fill: #fbb81b;
      }

      .st24 {
        fill: #934d2b;
      }

      .st25 {
        fill: #2d241b;
      }

      .st26 {
        fill: #3f1106;
      }

      .st27 {
        fill: url(#linear-gradient1);
      }

      .st28 {
        fill: #98897f;
      }

      .st29 {
        fill: #f89f33;
      }

      .st30 {
        fill: #a85405;
      }

      .st31 {
        fill: #c7bcab;
      }

      .st32 {
        fill: #665e5a;
      }

      .st33 {
        fill: #f9bd7e;
      }

      .st34 {
        fill: #874a07;
      }

      .st35 {
        fill: #281f20;
      }

      .st36 {
        fill: #f28b30;
      }

      .st37 {
        fill: #736353;
      }

      .st38 {
        fill: #dee9f5;
      }

      .st39 {
        fill: #fb8b84;
      }

      .st40 {
        fill: #f9d65e;
      }

      .st41 {
        fill: #a5abad;
      }

      .st42 {
        fill: #514a4c;
      }

      .st43 {
        fill: #806c53;
      }

      .st44 {
        fill: #7a4918;
      }

      .st45 {
        fill: #b75b23;
      }

      .st46 {
        fill: #fcea85;
      }

      .st47 {
        fill: #594c3b;
      }

      .st48 {
        fill: #fee72e;
      }

      .st49 {
        fill: url(#linear-gradient3);
      }

      .st50 {
        fill: #ec8223;
      }

      .st51 {
        fill: #fdac63;
      }

      .st52 {
        fill: #a39685;
      }

      .st53 {
        fill: #cec913;
      }

      .st54 {
        fill: #fdc70c;
      }

      .st55 {
        display: none;
        fill: none;
        stroke: url(#linear-gradient);
        stroke-miterlimit: 10;
        stroke-width: 11px;
      }

      .st56 {
        fill: #b36f08;
      }

      .st57 {
        fill: #863504;
      }

      .st58 {
        fill: #ed8218;
      }

      .st59 {
        fill: #fc9b77;
      }

      .st60 {
        fill: #867866;
      }

      .st61 {
        fill: #443e3a;
      }

      .st62 {
        fill: #7f6d65;
      }

      .st63 {
        fill: #dd9445;
      }

      .st64 {
        fill: #f3903f;
      }

      .st65 {
        fill: #1a0604;
      }

      .st66 {
        fill: #e6e5e5;
      }

      .st67 {
        fill: #282727;
      }

      .st68 {
        fill: #8f9496;
      }

      .st69 {
        fill: #ed683c;
      }

      .st70 {
        fill: #fefefe;
      }

      .st71 {
        fill: #94908e;
      }

      .st72 {
        fill: #be6a13;
      }

      .st73 {
        fill: #cbcacb;
      }

      .st74 {
        fill: #2c0c08;
      }

      .st75 {
        fill: #f05e50;
      }

      .st76 {
        fill: #5c2d17;
      }
    </style>
    <linearGradient id="linear-gradient" x1="0" y1="142" x2="284" y2="142" gradientTransform="translate(0 284) scale(1 -1)" gradientUnits="userSpaceOnUse">
      <stop offset="0" stop-color="#fff33b"/>
      <stop offset="0" stop-color="#fee72e"/>
      <stop offset=".1" stop-color="#fed51b"/>
      <stop offset=".2" stop-color="#fdca10"/>
      <stop offset=".3" stop-color="#fdc70c"/>
      <stop offset=".7" stop-color="#f3903f"/>
      <stop offset=".9" stop-color="#ed683c"/>
      <stop offset="1" stop-color="#e93e3a"/>
    </linearGradient>
    <linearGradient id="linear-gradient1" x1="236" y1="-45.5" x2="235" y2="-43.5" gradientTransform="translate(278 354.5) rotate(-143.9)" gradientUnits="userSpaceOnUse">
      <stop offset="0" stop-color="#282727"/>
      <stop offset="0" stop-color="#282727"/>
      <stop offset="1" stop-color="#282727"/>
    </linearGradient>
    <linearGradient id="linear-gradient2" x1="139.8" y1="2.5" x2="145.3" y2="7.3" gradientUnits="userSpaceOnUse">
      <stop offset="0" stop-color="#eba81f"/>
      <stop offset=".3" stop-color="#f5d451"/>
      <stop offset=".8" stop-color="#f9eeb0"/>
    </linearGradient>
    <linearGradient id="linear-gradient3" x1="142.6" y1="1.6" x2="140.4" y2="8.7" gradientUnits="userSpaceOnUse">
      <stop offset="0" stop-color="#fbe558"/>
      <stop offset=".5" stop-color="#fcf597"/>
      <stop offset="1" stop-color="#fadc43"/>
    </linearGradient>
  </defs>
  <circle id="_01" class="st55" cx="142" cy="142" r="136.5"/>
  <g id="Pumpkin">
    <animateTransform attributeName="transform" type="rotate" from="0 142 142" to="-360 142 142" dur="10s" repeatCount="indefinite" />
    <polygon id="Stem" class="st53" points="223.7 255.3 224.5 254.7 225.5 256.3 225 256.6 223.7 255.3"/>
    <g>
      <path class="st39" d="M222.6,246.8c0,0-.2,0-.3,0h0c0,0-.3.1-.3.1,0,0-.1,0-.2.1,0,0-.1,0-.2.2,0,0-.2,0-.2.1s0,0,0,0c0,0-.2,0-.2,0,0,0,.6,0,.5.1-.2-.1-.5,0-.7,0,0,0,.2,0,.2,0-.3,0-.6.1-.7.4,0,0,0,0,0,0-.1,0-.2,0-.3.2s0,0,0,0c-.3,0-1,.6-1.1.8,0,0,0,0,0,0-.1,0-.2.1-.3.2,0,0,0,0,0,0-.1,0-.2.1-.2.3h0c0-.2-.2,0-.2.1s0,0-.1,0c-.2.2-.2.5-.3.8-.2,0,0-.4,0-.5,0,0,0,0,0,0,0,0,0,0,0,.1-.2,0-.2.3-.3.4,0,0,0-.1,0-.2-.2.2-.2.4-.3.7v-.4s0,0,0,.1c0,.2-.2.7-.2.9,0-.3,0-.6.2-.9-.1.1-.2.3-.2.5,0-.1,0-.3,0-.4,0,.1-.2.3-.2.4,0-.1-.1,0-.1,0,0,.1-.2.4-.2.5-.1,0-.2.5-.2.6,0-1,.8-2,1.6-2.7,1.2-1,3.9-3.1,5.4-3.2h-.2c0,.1,0,.1.1.1.6.2,1,0,1.7.4h0c-.2,0-.6-.2-.9-.3s-1.2-.1-1.3,0c0,0,0,0,0,0Z"/>
      <path class="st59" d="M225,247.1c-.6-.3-1.3-.5-2-.5,0,0-.1,0-.1,0h.2c.7-.1,1.4,0,2,.4h-.1Z"/>
      <path class="st59" d="M216.1,253.5c0-.4-.1-.8,0-1.2s.1-.6.2-.6c-.2.6-.1,1.2,0,1.7,0,0-.1,0-.2,0Z"/>
      <path class="st51" d="M216.7,254.8c-.2-.4-.4-.8-.5-1.2,0,0,0,0,.2,0,.1.4.3.8.5,1.2h-.2Z"/>
      <path class="st51" d="M225.9,247.8c-.3-.3-.6-.5-.9-.7h.1c.3,0,.6.3.9.6h-.1Z"/>
      <path class="st50" d="M225.4,250.6s0,0,0,0c0-.1-.2-.3-.3-.4,0,.2.2.3.2.5,0,0,0,0,0,0-.3.2-.7.5-1,.7l-1.1-1.7c.4-.2.9-.4,1.3-.6-.1,0-.3-.1-.4-.2.2-.1,0-.2,0-.2-.4-.5-.7-.7-1.2-1s-1-.6-1.6-.5c0,0,.2,0,.2-.1.3,0,.9,0,1.2.2.6.3,1.2.7,1.6,1.2.7.8,1.3,1.6,1.6,2.7s.2,1.5-.2,2.1c.3-.9,0-1.9-.4-2.8Z"/>
      <path class="st67" d="M225.6,253s0,0,0,0c0,0-.2,0-.3,0s0,0,0,0c-.1,0-.3,0-.4,0s0,0,0,0c-.2,0-.3,0-.5-.1s-.1,0-.2,0c-.3,0-.6-.2-.9-.2,0,0,.7-.6.8-.7s0,0,0,0c.1,0,.2-.2.3-.3s0,0,0,0c.3-.2.6-.5,1-.7l.3,2.3c0,0,0,0,0,0Z"/>
      <path class="st67" d="M219.9,254.9s-.2,0-.2-.1c.3-.2.6-.4.9-.6s0,0,.1,0c.1,0,.3-.2.4-.2s.1,0,.2-.1c0,0,.7-.5.7-.4,0,.3,0,.6,0,1s0,0,0,0c0,.2,0,.3,0,.5s0,0,0,0c0,.1,0,.3,0,.4s0,0,0,0c0,0,0,.3,0,.3s0,0,0,0c-.6-.3-1.2-.6-1.8-.9Z"/>
      <path class="st36" d="M217.8,254.2c-.5-.7-.8-1.7-.8-2.5,0-.2,0-.5.1-.7s.1-.4.3-.7c0,0,0,.1,0,.2,0,.1,0,.2,0,.3,0,.3,0,.6,0,.9.3,2,2.3,4.8,4.6,4.6-1.7.4-3.3-.9-4.1-2.1Z"/>
      <path class="st36" d="M224.5,248.6c-.5-.5-1-.9-1.6-1.1s-.7-.3-1.1-.3c.3-.1.7,0,1,0,.3,0,.8.2,1.1.4.5.3,1,.7,1.3,1.2,1,1.2,1.8,3.1.8,4.6.6-1.7-.4-3.5-1.5-4.7Z"/>
      <path class="st36" d="M219,256.7h0c.1,0,.6.1.7.1s.1,0,0,0c-2.2-.3-3.7-2.7-3.5-4.8,0,0,0,0,0,0,0-.1,0-.2,0-.3,0,0,.1-.3.1-.3.1-.1,0,0,0,0,0,.3,0,.6,0,.9.1,2.2,1.8,4.2,4.1,4.5-.2,0-.5,0-.7,0h.2c-.4.1-.8,0-1.2-.1Z"/>
      <path class="st36" d="M224.7,247.5c-.6-.4-1.3-.6-2-.7h0c0,0,0,0,0,0,0,0,0,0,0,0,0-.2,1.1,0,1.3,0,.3,0,.7.2.9.3.5.3.9.6,1.2,1,1,1.1,1.6,2.6.9,4.1,0-.2,0-.5,0-.7,0-1.7-.9-3.1-2.2-4Z"/>
      <path class="st23" d="M225.6,253s0,0,0,0l-.3-2.3s0,0,0,0c.4.9.8,2,.3,3-.1,0,.2-.3,0-.3,0,.2-.1.4-.3.6.2-.3.1-.5.2-.8Z"/>
      <path class="st54" d="M222.2,256.1c-.9,0-1.5-.4-2.2-.9s-.1,0-.2,0c0,0,0-.2,0-.2h.1c.6.3,1.2.5,1.8.9,0,0,0,0,0,0,.2.1.5.1.8.1,0,.1-.5.1-.6.1h.3c0,0,0,0,0,0Z"/>
      <path class="st13" d="M216.8,254.7c-.2-.4-.4-.8-.5-1.2s-.1-1.1,0-1.7.1-.4.2-.5.1-.2.1,0c0,.1-.1.4-.2.5s0,.2,0,.3,0,0,0,0c-.4,1.8,1.1,4,2.7,4.6h0c-1-.3-1.7-1-2.2-1.9Z"/>
      <path class="st23" d="M224.2,252.7c.2,0,.3,0,.5.1,0,.3.4,1.2,0,1.5s0-.3-.2-.5l-.5-1.1Z"/>
      <path class="st23" d="M221.8,254.9c0-.2,0-.3,0-.5l.9.8.6.2c-.5.4-1.1-.2-1.5-.4Z"/>
      <path class="st48" d="M221.9,256.3c-2.3.2-4.3-2.6-4.6-4.6h0c.3,1.7,1.7,3.7,3.4,4.3s.9.3,1.3.1c-.6,0-1.2-.3-1.6-.6s-.6-.4-.6-.4c0,0,.1,0,.2,0,.7.5,1.3,1,2.2.9-.1.1,0,.2-.3.2Z"/>
      <path class="st23" d="M221.8,255.3c0-.1,0-.3,0-.4.4.2.8.6,1.3.6-.4.3-.9,0-1.3-.1Z"/>
      <path class="st23" d="M224.7,252.8c.1,0,.3,0,.4,0,.1.4.2,1-.2,1.3.2-.5,0-.9-.2-1.4Z"/>
      <path class="st40" d="M224.5,248.6c-.5-.5-1-.9-1.6-1.2h0c.7.3,1.1.6,1.6,1.1h0Z"/>
      <path class="st40" d="M225.2,248.7c-.4-.4-.9-.9-1.3-1.2h0c.3.1.6.3.8.6s.4.4.5.5h0Z"/>
      <path class="st54" d="M225.9,248.1c-.3-.4-.8-.8-1.2-1h0c.5.2.9.6,1.3,1h0Z"/>
      <path class="st23" d="M225.4,250.6s0,0,0,0c0-.2-.2-.3-.2-.5,0,.1.3.3.3.4s0,0,0,0Z"/>
      <path class="st29" d="M217.3,251.7c0-.3,0-.6,0-.9,0,0,0-.2,0-.3,0-.1.1-.3.3-.4-.3.5-.1,1.2,0,1.6,0-.5-.2-1,0-1.5,0,0,.1-.2.1-.2,0,.1-.2.5,0,.5,0-.3,0-.6.3-.8-.3.7-.1,2,.3,2.6s0,0,.1,0c0,.4-.1.9,0,1.3l1-1.1,1.2,1.5h0c-.3.3-.6.5-.9.7,0,0,.2.1.2.1h-.1s0,.2,0,.2c0,0,.5.4.6.4.5.3,1.1.5,1.6.6-.4.2-1,0-1.3-.1-1.7-.6-3.1-2.6-3.4-4.4Z"/>
      <path class="st58" d="M219.2,250.5c-.2-.3-.5-1.1-.3-1.5s.8-.8,1.1-.8c.4,0,1.1.5,1.3.8-.9.3-1.5.8-2.1,1.5Z"/>
      <path class="st58" d="M222.5,248.8c-.4-.5-1.2-1.1-1.9-1,.7,0,1.3.5,1.8,1-.2,0-.4,0-.5,0-.3-.3-1.1-.9-1.5-.9.2-.2.5-.3.7-.4.8.1,1.5.5,2.1,1s.1.1,0,.2c-.2,0-.6,0-.8,0Z"/>
      <path class="st58" d="M218,249.7c0,0,.1,0,.1,0,0,0,.2-.3.2-.1-.3.7,0,1.5.3,2.1,0,.2-.2.5-.2.8-.2,0,0,0-.1,0-.5-.6-.6-1.9-.3-2.6Z"/>
      <path class="st58" d="M218.3,249.6c0-.1,0-.2.2-.3-.1.6.1,1.2.3,1.8,0,.1-.1.3-.2.4-.3-.5-.6-1.4-.4-2Z"/>
      <path class="st58" d="M218.6,249.3c0-.1.1-.2.3-.2-.1.5.1,1,.3,1.5,0,.1-.2.3-.2.4-.2-.3-.5-1.4-.3-1.7Z"/>
      <path class="st58" d="M221.4,249c-.4-.3-.8-.8-1.3-.8,0-.1.2-.2.3-.2.6,0,1.1.5,1.5.8,0,0-.4.1-.5.1Z"/>
      <path class="st69" d="M221.2,247.6c0,0-.2,0-.2,0,.2-.1.5-.1.7,0,.1,0-.5-.2-.5-.1,0,0,.2,0,.2,0,.5,0,1.2.3,1.6.5-.3.2-.2.3-.5.2s-.8-.5-1.3-.4Z"/>
      <path class="st51" d="M221.6,247.2c0,0,.1-.1.2-.2s0,0,0,0c.3,0,.6,0,.8.1-.3,0-.7,0-1,0,.4,0,.7.1,1.1.3h0c-.3-.1-.9-.3-1.2-.2Z"/>
      <path class="st51" d="M218.3,249.5h0c-.3.6,0,1.5.4,2,0,0,0,0,0,0-.3-.6-.6-1.4-.3-2.1Z"/>
      <path class="st33" d="M218.9,251.1c-.2-.6-.5-1.2-.3-1.8,0,0,0,0,0,0-.2.3.1,1.4.3,1.7,0,0,0,0,0,.1Z"/>
      <path class="st51" d="M221.9,248.8c-.4-.4-.9-.8-1.5-.8,0,0,0,0,0,0,.4,0,1.2.6,1.5.9,0,0,0,0,0,0Z"/>
      <path class="st51" d="M223,247.8c-.4-.2-1.1-.6-1.6-.5,0,0,0,0,0,0,.6,0,1.2.3,1.6.5,0,0,0,0,0,0Z"/>
      <path class="st51" d="M221.3,249c-.2-.3-.9-.8-1.3-.8,0,0,0,0,0,0,.6,0,1,.4,1.3.8,0,0,0,0,0,0Z"/>
      <path class="st51" d="M217.7,250.1s0,0,0-.1c0,0,0,0,0,0,0,0-.1.2-.1.2-.1.5,0,1,0,1.5-.1-.5-.3-1.2,0-1.6Z"/>
      <path class="st33" d="M219.2,250.6c-.2-.5-.5-1-.3-1.5,0,0,0,0,0,0-.2.4.1,1.1.3,1.5,0,0,0,0,0,0Z"/>
      <path class="st75" d="M216.5,251.6c0-.1,0-.4.2-.5s.2-.2.2-.4c0,.1,0,.3,0,.4,0,0,0,.2,0,.3,0,0,0-.2,0,0s0,.3-.1.3Z"/>
      <path class="st67" d="M223.3,249.8s0,0,0,0c-.2,0-.3-.3-.4-.4s-.3.1-.4.2c-.2,0-.3.2-.5.2l.3.4-.6.4-.6-.7-.7.6.5.7-.6.5-.3-.4c0,0-.3.3-.3.3s0,0,0,0c-.6.4,0,.6,0,.8s0,0,0,0l-1,1.1c0-.4,0-.9,0-1.3s.1-.5.2-.8,0,0,0,0c0-.1.1-.3.2-.4s0,0,0-.1c0-.1.2-.3.2-.4s0,0,0,0c.6-.8,1.2-1.2,2.1-1.5s0,0,0,0c.1,0,.4-.1.5-.1s0,0,0,0c.2,0,.4,0,.5,0s0,0,0,0c.2,0,.6,0,.8,0s.7.1.9.2.3,0,.4.2c-.4.2-.9.4-1.3.6Z"/>
      <path class="st36" d="M224,251.7l-1.6-2.1h0c0,0,.4-.2.4-.2.1,0,.2.4.4.4l1.1,1.6c-.1,0-.2.2-.3.3Z"/>
      <g>
        <path class="st58" d="M221.9,254.3c0-.3,0-.6,0-1,0,0-.6.4-.7.4,0,0,0,0-.1,0-.2,0-1.4-1.9-1.6-2.1,0,0,.3-.3.3-.3l.3.4.6-.5-.5-.7.7-.6.6.7.6-.4-.3-.4c.2,0,.3-.1.5-.2h0s1.5,2.2,1.5,2.2c0,0-.8.6-.8.7.3,0,.6.2.9.2.3.4.8,1.4.5,1.8s-.2.3-.2,0c0,.2-.3.4-.5.5s-.1,0-.1,0c0,0,0,0,0,.1-.6.2-1.3-.6-1.7-.9Z"/>
        <polygon class="st67" points="222.4 252.6 221 252.1 222.3 251.2 222.4 252.6"/>
        <path class="st48" d="M221,253.9l-1.5-2.2s0,0,0,0c.2.3,1.4,2.1,1.6,2.1s0,0,.1,0c0,0-.1,0-.2.1Z"/>
      </g>
      <path class="st48" d="M223.9,251.8l-1.5-2.1,1.6,2.1s0,0,0,0Z"/>
      <path class="st13" d="M224.2,249c-.2,0-.6-.2-.9-.2,0,0,0-.1,0-.2-.6-.5-1.3-.9-2.1-1,.6,0,.9.2,1.3.4s.2,0,.5-.2c0,0,0,0,0,0,.5.3.8.5,1.2,1s.2,0,0,.2Z"/>
      <path class="st48" d="M224.3,251.5l-1.1-1.6s0,0,0,0l1.1,1.7s0,0,0,0Z"/>
      <path class="st36" d="M220.7,254.1l-1.2-1.6c.1-.2-.5-.4,0-.8l1.5,2.2c-.1,0-.3.2-.4.2Z"/>
      <path class="st54" d="M220.5,254.2h0c0-.1-1.2-1.7-1.2-1.7,0,0,0,0,0,0l1.2,1.6s0,0-.1,0Z"/>
      <path class="st39" d="M217.3,251.7c0-.3,0-.6,0-.9,0,.3,0,.6,0,.9h0Z"/>
      <path class="st51" d="M222.8,247.1c.4,0,.7.2,1.1.4h0c-.3-.1-.7-.3-1.1-.4Z"/>
      <path class="st18" d="M219.1,256.6c-1.6-.6-3.1-2.8-2.7-4.6-.2,2.1,1.4,4.5,3.5,4.8,0,0,0,0,0,0-.1,0-.6-.2-.7-.2Z"/>
      <path class="st69" d="M224.7,248.1c-.3-.2-.5-.4-.8-.6s-.7-.3-1.1-.4c-.3,0-.5,0-.8-.1.3,0,1.1,0,1.4,0,.6.2,1.1.5,1.5.9h-.2c0,0,0,.2,0,.2Z"/>
      <g>
        <path class="st36" d="M225.3,248.7c-.2-.2-.4-.4-.5-.5v-.2c0,0,.1,0,.1,0,1.1.9,1.8,2.2,1.8,3.7.1-1.7-1.4-3.8-2.9-4.5,0,0,0,0,0,0,0,0,0,0,0,0,0,0,0,0,0,0,0,0,0,0,0,0-.1,0-.2-.1-.3-.1,0,0,.2,0,.3.1,0,0,0,0,0,0,0,0-.3,0-.4-.1-.4-.1-.9-.2-1.2-.1h.3s0-.1,0-.1c0,0,.2,0,.3,0,0,.1.4,0,.6.1h-.5c.6-.1,1.5.2,2,.6,1,.7,1.8,1.7,2.1,2.9-.3-1-1.1-2.1-1.9-2.7s-.6-.4-.8-.5c1.9,1,3.5,3.4,2.5,5.6.2-.5.3-1.3.1-1.8s0-.1,0,0c.1.6.2,1.4-.2,2,.6-1.5-.1-3.1-1-4.3Z"/>
        <g>
          <path class="st51" d="M222.7,246.8h0c.7,0,1.4.3,2,.7h0c-.5-.3-1.3-.7-2-.7Z"/>
          <path class="st59" d="M222,247s0,0,0,0c0-.2.1-.1.2-.1.4,0,.9,0,1.2.1h0c-.3,0-1.1-.1-1.4,0Z"/>
          <path class="st39" d="M222.6,246.8s0,0,0,0h.5c-.2,0-.5.1-.6,0Z"/>
          <path class="st18" d="M224.9,248c-.4-.4-1-.7-1.5-.9h0c0,0,.3,0,.4,0,1.5.7,3.1,2.7,2.9,4.5,0-1.5-.8-2.7-1.8-3.7Z"/>
          <path class="st18" d="M223.7,247.1c0,0-.3,0-.3-.1.1,0,.2,0,.3.1Z"/>
          <path class="st18" d="M223.8,247.1s0,0,0,0c0,0,0,0,0,0Z"/>
          <path class="st18" d="M226.7,251.8s0,0,0,0c0,0,0,0,0,0Z"/>
          <path class="st18" d="M226.7,252s0,0,0,0c0,0,0,0,0,0Z"/>
          <path class="st18" d="M223.7,247.2s0,0,0,0c0,0,0,0,0,0,0,0,0,0,0,0Z"/>
        </g>
      </g>
      <g>
        <path class="st13" d="M216.7,252.3c0-.4,0-.8,0-1.2,0-.1.1-.4.2-.5-.1.3-.2.6-.2.9s0,0,0,.1c0,0,0,0,0-.1,0-.2.2-.8.2-.9s.1-.1.1-.1v.4c-.1.2-.2.5-.2.7,0,.8.2,1.7.6,2.4,0,0-.2-.4-.3-.2s.3.3.1.4c-.3-.5-.5-1.1-.7-1.7.3,1.9,1.8,3.8,3.9,4.1-2.2-.3-3.6-2.1-4-4.1s0-.2,0-.2c0,0,0,.1,0,.2.2,2,2,3.9,4,4.2-2.1,0-3.9-2.4-4.1-4.3Z"/>
        <g>
          <path class="st40" d="M217.8,254.2c0,0,0-.1-.1-.2-.4-.7-.7-1.5-.6-2.4,0,.9.3,1.8.8,2.5h0Z"/>
          <path class="st51" d="M216.6,252.3c0-.3,0-.6,0-.9s0-.2,0-.3c0,.4-.1.8,0,1.2h0Z"/>
          <path class="st39" d="M216.8,252.5c0,0,0-.1,0-.2,0,0,0,.2,0,.2h0Z"/>
          <path class="st39" d="M216.8,252.1c0,0,0-.2,0-.3,0,0,0,.2,0,.3Z"/>
          <path class="st39" d="M216.8,251.6s0,.1,0,.1c0,0,0,0,0-.1Z"/>
        </g>
      </g>
      <g>
        <path class="st63" d="M222.3,256.4c.5-.3.9-.7,1.4-1,0,0,0,0,0,0,.1-.1.3-.3.4-.4s.3-.2.5-.3c0,0,0,0,0,0,1.3-.9,2.6-1.9,2.8-3.4.2-1.3-.5-2.7-1.4-3.6h-.1c1,1.1,1.8,2.7,1.2,4.2.4-1.4-.2-2.7-1.1-3.8h0c1,1.2,1.6,2.7.9,4.2,0-.2,0-.5,0-.7,0-1.7-.9-3.1-2.2-4h0c1,.7,1.8,1.8,2.1,2.9,0,0,0,0,0,.1.1.4.1.7.1,1.1,0-.4,0-.7-.1-1.1,0,0,0,0,0,0,0,0,0,0,0,0,0,0,0,0,0-.1-.3-1-1.1-2.1-1.9-2.7-.2-.2-.6-.4-.8-.5,1.9,1,3.5,3.4,2.5,5.6.2-.5.3-1.3.1-1.8,0,0,0-.1,0,0,.1.6.2,1.4-.2,2,.6-1.5-.1-3.1-1-4.3h0c1,1.2,1.8,3.1.8,4.6.6-1.7-.4-3.5-1.5-4.7h0c.7.8,1.3,1.7,1.6,2.7.2.6.2,1.5-.2,2.1.3-.9,0-1.9-.4-2.8,0,0,0,0,0,0,.4.9.8,2,.3,3-.1,0,.2-.3,0-.3,0,.2-.1.4-.3.6.2-.3.1-.5.2-.8,0,0,0,0,0,0,0,.4,0,.8-.4,1,.2-.4.1-.7.1-1.1,0,0,0,0,0,0,.1.4.2,1-.2,1.3.2-.5,0-.9-.2-1.4,0,0,0,0,0,0,0,.3.4,1.2,0,1.5-.2.2,0-.3-.2-.5l-.5-1.1c0,0-.1,0-.2,0,.3.4.8,1.4.5,1.8,0,.1-.2.3-.2,0,0,.2-.3.4-.5.5,0,0-.1,0-.1,0,0,0,0,0,0,.1-.6.2-1.3-.6-1.7-.9,0,0,0,0,0,0l.9.8.6.2c-.5.4-1.1-.2-1.5-.4,0,0,0,0,0,0,.4.2.8.6,1.3.6-.4.3-.9,0-1.3-.1,0,0,0,0,0,0,.3.2.7.4,1.1.3-.3.3-.8.1-1.1,0,.2.1.5.1.8.1,0,.1-.5.1-.6.1h.3c0,0,0,0,0,0-.1.1,0,.2-.3.2-1.7.4-3.3-.9-4.1-2.1h0c.7,1.2,1.9,2.2,3.4,2.3.1,0,.3,0,.4,0,0,0-.4,0-.4,0-.6,0-1.1-.2-1.6-.5,0,0,0,0,0,.1.4.3,1.3.4,1.8.4h-.2c-1.6,0-2.8-1-3.6-2.3-.3-.5-.5-1.1-.7-1.7.3,1.9,1.8,3.8,3.9,4.1-2.2-.3-3.6-2.1-4-4.1h0c.2,2,2,3.9,4,4.2,0,0,.1,0,.2,0,0,0-.1,0-.2,0-2.1,0-3.9-2.4-4.1-4.3h0c.1,2.2,1.8,4.1,4.1,4.4-.2,0-.5,0-.7,0h.2c-.4.1-.8,0-1.2-.1-1-.4-1.7-1.1-2.2-2h-.2c1.2,2.1,3.3,3.1,5.6,1.7Z"/>
        <g>
          <path class="st36" d="M217.5,254.2c.1-.1-.2-.3-.1-.4,0-.2.2.2.3.2,0,0,0,.2.1.2.7,1.2,1.9,2.2,3.4,2.3-.6,0-1.1-.2-1.6-.5,0,0,0,0,0,.1.4.3,1.3.4,1.8.4h-.2c-1.6,0-2.8-1-3.6-2.3Z"/>
          <path class="st36" d="M226,248.1c-.4-.4-.8-.8-1.3-1-.7-.4-1.1-.2-1.7-.4.7,0,1.4.1,2,.5s.6.4.9.7c1,1,1.8,2.6,1.2,4,.4-1.4-.2-2.7-1.1-3.8Z"/>
          <path class="st23" d="M221.8,255.7s0-.3,0-.3c.3.2.7.4,1.1.3-.3.3-.8.1-1.1,0Z"/>
          <path class="st54" d="M225.2,252.9c0,0,.2,0,.3,0,0,.4,0,.8-.4,1,.2-.4.1-.7.1-1.1Z"/>
          <path class="st23" d="M226.7,250.5c.1.4.1.7.1,1.1,0-.4,0-.7-.1-1.1s0,0,0,0Z"/>
          <path class="st36" d="M221.2,256.5c.1,0,.3,0,.4,0,0,0-.4,0-.4,0Z"/>
          <path class="st12" d="M226.7,250.4s0,0,0,.1c0,0,0,0,0,0,0,0,0,0,0-.1Z"/>
          <path class="st23" d="M226.7,252.4c0,0,0-.1,0-.1,0,0,0,0,0,.1Z"/>
          <path class="st13" d="M220.8,256.7c0,0,.1,0,.2,0,0,0-.1,0-.2,0Z"/>
        </g>
      </g>
      <path class="st51" d="M222.5,248.8c-.5-.5-1.1-1-1.8-1,.7-.1,1.4.5,1.9,1,0,0,0,0,0,0Z"/>
    </g>
  </g>
  <g id="Skull">
    <animateTransform attributeName="transform" type="rotate" from="0 142 142" to="360 142 142" dur="8s" repeatCount="indefinite" />
    <path class="st38" d="M270.6,102.5c0,0-.2,0-.3,0-.2,0-.3,0-.5,0,0,0,0,0,0,0,0,0-.1-.1-.2-.2,0,0,0,0,0,0,.2,0,.1,0,.2,0s0,0,.2,0c.1,0,.3.1.4.2s0,.1,0,.2Z"/>
    <g>
      <path class="st21" d="M271.1,103.3c-.2-.2-.2-.4-.4-.7s0-.4-.3-.5v-.3s0,0,0,0c0,0-.2,0-.2.1h0c0,0-.2,0-.2.2s0,0,0,0c0,0-.1,0-.2,0,0,0,0,0,0,0,0,0-.1,0-.2-.1s0,0,0,0c0,0-.3,0-.2.2-.2,0,0-.1-.1-.2s-.2,0-.2-.1.1,0,0,0c.1,0,.1,0,.2-.1s0,0,0,0,.1-.1.1-.1c0,0,0,0,0,0-.1,0-.1,0-.1.1,0,0,0-.1,0-.1s-.2,0-.2,0v.3c0,0-.1-.3-.2-.5.2,0,0,.1.2.2.2,0,.3-.1.4-.3-.2-.2-.4,0-.6,0,0,0,0,0,0,0,0,0,0,0,0,0,0,0,0-.2,0-.3s0-.3-.1-.4c0,0,.1.3.2.3s.2,0,.2,0h0c0,0-.2.1-.2.2,0,0,0,.2,0,.2s0,0,0,0c0,0,0,0,0,0,0,0,.5-.1.5-.3s0-.1,0-.1c0,0,0-.1-.1-.2.2-.3-.2-.3-.3-.3,0,0,.3-.2.2-.3-.2-.1-.4,0-.5,0,0,0,0,0,0,0,0,0,.2,0,.2,0s0,0,0,0c0,0,.2,0,.2-.2,0,.2,0,.2,0,.2s0,0,0,0c0,.1,0,.2,0,.3s.1.1.2.2c0,0,0,.1,0,.2,0,0,0,0,0,0s0,0,0,0c.2,0,0,.1,0,.1s0,.1.1.2,0,0,0,.1c0,.1,0,0,0,0,0,0,0,.1,0,0,0,.2,0,.2.1.3s0,.1,0,.1.1.2.1.2,0,0,0,0l.9-.5s0,0,0,0c0,0,0,0,0,0,.1,0,.3,0,.4,0s.1.2,0,.2c0-.1-.3-.1-.4,0,0,0,.1,0,.2,0h0s.1,0,.1,0c0,0,0,0,0,0s0,.2,0,.2c0,0,0,.1,0,0s0-.1,0-.1,0,0,0,0,0-.1,0-.2c0,0,0,0,0,0s0,.5,0,.6c0,.1,0,.2,0,.4.3-.1.2-.5.1-.8h0c0,0,0,.3,0,.4,0,.2,0,.3-.1.4s-.2.2-.3.3-.2,0-.1.1,0,0,0,0c.2.4.3.6.8.7s0,0,0,0c.2,0,.3,0,.5.2-.2,0-1-.2-1.2-.4Z"/>
      <path class="st31" d="M272.7,103c-.1,0-.5.2-.4.4s.1.1.1.1c0,.1,0,.2,0,.3-.2-.1-.3-.2-.5-.2s0,0,0,0c-.5,0-.6-.3-.8-.7,0,0,.1,0,0,0,.1,0,.2-.1.3-.3.1.2.2.5.4.6,0,0,.3,0,.3-.1s0,0,0,0,.2,0,.3,0c.1,0,.1,0,.2,0s0,0,0,0Z"/>
      <path class="st15" d="M270,97.8c-.1,0-.6,0-.7,0s0,0,0,0c0-.2,0-.4,0-.6,0-.2.5-.8.6-.9s0,0,.1,0c0,.2-.1.4,0,.5s0,.1,0,.2,0,.3,0,.4,0,.3.1.4Z"/>
      <path class="st25" d="M272.1,98.9c0,0,0,0-.1,0-.1,0-.3.1-.4.1,0,0,0,0,0,0s-.5-.2-.5-.4,0,0,0,0c0,0,.1,0,.2,0,0,0,0,0,0,0,.2-.3.3-1,.3-1.3s0,0,0-.1,0,0,0,0c0,0,0-.2-.1-.3,0,0,.2,0,.2,0s.2.3.3.3h0c-.1,0,.1.4.2.5.1.3.2.5.2.8v-.2c0,.3,0,.4-.1.6Z"/>
      <path class="st31" d="M270.3,98.2h0c0-.1-.2-.4-.3-.4l.3.5s0,0,0,0c0,.2.2.4.1.6s-.1.2-.1.2-.1,0-.2.1h0c.3-.2.3-.4.1-.7,0,.2,0,.3,0,.4s-.2,0-.1.1c0,0,0,0,0,0v-.3c0,0,0-.1,0-.1,0-.1-.3-.3-.4-.4s0,.1-.1-.1h0s0-.1,0-.2c0,0,0,0,0,0,0,0,.6,0,.7,0s0,0,0,0c.1,0,.2.3.3.4Z"/>
      <path class="st21" d="M272.4,100.4c-.3,0-.4.1-.6.2,0,0,0-.1,0-.1s.1,0,.1,0c0-.2-.1,0-.2,0-.5.3-.3.8-.3,1.4h0c0,0,0-.2-.1-.1,0,0,0-.1,0,0,0,0,0,.2,0,.2,0,0,0,0,0,0,0,0,0,.1,0,.1,0,0,0,0,0,0,0-.1,0-.2,0-.3.2,0,.1,0,0-.2s-.3,0-.4,0c0,0,0,0,0,0,.1,0,.2,0,.3-.2s0-.1,0-.2c0,0,0-.1,0-.1.2-.2.6-.7.7-.8s.2,0,.1,0c0,0,0,0,0,0,0,0-.1,0,0,.1s0,0,0,0c0,0,0,0,0,0,0,0,0,0,0,0,0,0,.2,0,.3-.1,0,0,0,.2,0,.2s.1,0,0,.1Z"/>
      <path class="st47" d="M271.4,97.1c0,0,0,.1,0,.2,0,.4-.1.8-.3,1.1,0,0,0,0,0,0,.2-.4.3-.8.3-1.2,0,0,0,0,0,0,0,0-.1,0-.2,0,0,0,0-.1,0-.1,0,0-.3,0-.3,0-.1,0-.3.2-.2.4s.2.4.3.5c0,0,0,0,0,0,0,0-.3-.3-.4-.4,0,.1.4.8.4.5,0,.1.1.3.3.3h0c0,.1.1.2.2.3s.3.2.3.3c-.1,0-.1,0-.2,0l-.7-.9s0,.1,0,.1c0,0,0,0,0-.1,0-.1-.2-.3-.2-.4-.2-.6.6-1,1-1,0,.1,0,.2.1.3Z"/>
      <path class="st31" d="M272.4,103c0,0-.3,0-.3,0s0,0,0,0c0,0-.3,0-.3.1-.2-.1-.3-.4-.4-.6.1-.1.1-.2.1-.4,0,.1.1.4.2.5s0,0,0,0c0,0,0,.1.1.2s.3,0,.3,0c0,0,.6,0,.2,0Z"/>
      <path class="st1" d="M270.8,99.1c-.2-.2-.4-.7-.5-.9s-.2-.3-.3-.4c0-.2,0-.3,0-.5s.2-.4.2-.2,0,.2,0,.3,0,0,0,0c0,0,0,.5.1.4,0,.1.1.3.2.4,0,0,0,.1,0,.2,0,.1.3.6.4.7s.3.1.3.2-.3-.1-.3-.1Z"/>
      <path class="st31" d="M271.8,100.5s0,0,0,.1c0,0,0,0,0,0-.2,0,0-.4.1-.2Z"/>
      <path class="st70" d="M268.5,99.8s0,.1,0,.2c0,0-.2.1-.3.1s0,0,0,0c0,0,0,0,0-.1,0,0,0,0,.1-.1s.2-.1.2,0Z"/>
      <path class="st62" d="M268.2,100s0,0,0-.1,0,0,0,0c0,0,0,0,0,0,0,0,0,.1-.1.1Z"/>
      <path class="st70" d="M269.2,100.6s-.1,0-.1.1c0,0-.2,0-.2,0,0,0-.1-.3-.2-.3,0-.1,0-.3,0-.4.1-.1.4-.2.5,0,0,0-.2.2-.2.3.2,0,.5,0,.3.3Z"/>
      <path class="st31" d="M270.8,101.2l-.9.5s.3-.2.2-.3-.3.2-.4.2c0,0,0,0,0-.1,0,0,.6-.3.6-.4s-.1-.1,0-.2c.1,0,.2.2.4.1,0,.2.2,0,.3.2Z"/>
      <path class="st31" d="M269.4,101.1s0-.1,0-.1c0,0-.1-.2-.1-.2s0,0,0-.1c0,0,0,0,0,0,0,0,0,0,0,0,.2,0,.4-.1.6-.2,0,0,0,.3,0,.3s-.2.2-.2.2c-.1,0-.3,0-.4.2Z"/>
      <path class="st73" d="M268.9,101.3s0,0,0,0h-.3c0,0-.1,0-.1-.1.1,0,.2,0,.3,0,0,0-.3,0-.3,0s0,0,0,0,0,0,0,0c0,0,0-.1,0-.2s.1,0,.2-.1c0,0-.1,0-.2,0s0,0,0,0c0,0,.3-.2.4-.1s.1.3.1.3,0,0,0,.1,0,0,0,0,0,0,0,0c0,0,0,0,0,0Z"/>
      <path class="st70" d="M269,100.7c0,0,.2,0,.3,0,0,0,0,0,0,.1,0,.1-.5.3-.5.3s0,0,0,0,0,0,0,0c0,0,0-.2,0-.2,0,0,.2,0,.2-.1Z"/>
      <path class="st1" d="M268.9,101.3s0,0,0,0c.2,0,.4-.2.6,0,0,.2-.2.3-.4.3-.1,0,0-.2-.2-.2Z"/>
      <path class="st31" d="M270.8,101.3s0,0,0,0c0-.2-.2,0-.3-.2.2,0,.3-.1.5-.3,0,0,0,0,0,.1s0,0,0,.2-.2.1-.3.2Z"/>
      <path class="st31" d="M271.5,101.8c0,.3.1.6-.1.8,0-.1,0-.2,0-.4s0-.5,0-.6c.2,0,0,0,.1.1Z"/>
      <path class="st70" d="M269.3,101.8s0,0,0,0v-.3c0,0,0,0,0,0s0,.1,0,.1c0-.1,0-.2.1-.1s0,0,0,0c0,0,0,.1-.1.1s0,0,0,0c0,0,0,0-.2.1Z"/>
      <path class="st14" d="M270.5,102.2c-.1,0-.2,0-.3,0,0,0,.2-.1.2-.1h0c0-.1.2-.1.2-.1h0c0,0,0,.4,0,.4Z"/>
      <path class="st1" d="M269.9,101.7s0,0,0,0c0,0-.1-.1-.1-.2,0,0,.3-.2.4-.2.1,0-.1.2-.2.3Z"/>
      <path class="st37" d="M271.2,101.9c0,0,0-.1,0-.2s-.1,0,0,0h-.1c0,0,0,0,0,0,0,0-.1,0-.2,0,0,0,.4,0,.4,0s0,.2,0,.3Z"/>
      <path class="st47" d="M270.8,102.7s-.1,0-.1-.1,0-.1,0-.2c0-.1-.3-.3-.4-.2,0,0,0,0,0,0,.1,0,.2,0,.3,0,.2.1.2.3.3.5Z"/>
      <path class="st42" d="M268.6,99.7c-.1.1,0,.1,0,.3s0,0,0,0c0,.1,0,.3,0,.4s0,.3.1.4,0,.2,0,.3c0,0,0,0,0-.1,0-.3-.2-.5-.2-.8s0,0,0,0c0,0,0-.1,0-.2s0,0,0,0c0,0,0-.1,0-.2s0-.2,0-.2,0,0,0,0c0,0,0,.1,0,.2Z"/>
      <path class="st22" d="M269.8,102c0,0-.2.2-.3.2,0-.2.1-.3.2-.2s0,0,0,0Z"/>
      <path class="st32" d="M269.3,100.8c0,0-.2,0-.3,0h0c0,0,.1-.1.1-.1,0,0,0,.1.1.2Z"/>
      <path class="st1" d="M271,102.9s0,0,0,0c-.1,0,.1,0,.1-.1,0,0,0,0,0,0Z"/>
      <g>
        <path class="st1" d="M276.6,100.5s0,0,0,0c0,.3-.2.7-.3,1s-.2.4-.3.4c0-.3.2-.6.3-.9-.2-.3-.4-.3-.6-.3s-.4.2-.4.2c-.1,0-.6-.1-.7,0-.2,0-.2.2-.2.2-.1,0,0-.1,0-.2.2-.1.6,0,.9,0s.3-.2.4-.2c-.2,0-.3.2-.5.2-.3,0-.5-.1-.8,0s-.2.4-.3.6,0,.1,0,.1,0,0,0,0c0,.1-.3.8-.4.9s-.2,0-.2,0,.1.1-.1.2c0,0,0,0,0,0,0,0,0,0,0,0,0,0,.1,0,.2,0-.2.2-.5.2-.8.4,0,0,0,0,0,0,0,0,0-.1-.2,0,.4-.2-.1,0-.2,0s-.3,0-.3,0c0,0,0-.1-.1-.2s0,0,0,0c0,0-.1-.4-.2-.5,0-.1,0-.3,0-.4,0-.6-.3-1.1.3-1.4s.1-.1.2,0c0,0-.1,0-.1,0,0-.2-.3.2-.1.2,0,0,0,0,0,0-.2.3-.1,1.5.2,1.8s1.2,0,1.4-.2.2-1.2,0-1.6-.3-.3-.5-.5,0,0,0,0-.1,0-.1,0c0,0,0-.3,0-.2,0-.2,0-.4-.1-.5s-.2-.2-.3-.2c0,0,.2-.4.3-.6.1-.6-.4-1.3-.8-1.6s-.1,0-.1,0c0,0-.1,0-.2,0-.4,0-1.2.4-1,1-.1,0-.1-.3-.1-.4s0,0,0,0c0,0,0-.3,0-.3,0-.2-.2.2-.2.2,0,.2,0,.3,0,.5,0,0,0,0,0,0,0-.1,0-.3-.1-.4s0-.4,0-.4c0,0,0,0,0-.2,0-.2,0-.4,0-.5.1,0,.1,0,.2.2,0,0,0,.2,0,.2,0,.2,1-.1,1.2-.2s.4,0,.6,0c.5,0,1-.5,1.3-.8s.2-.2.3-.2c0,0-.1,0-.2,0s0,0,0,0c0,0-.2,0-.2,0s0,0-.1,0c-.3,0-.4,0-.6,0s0,0,0,0c0,0-.3,0-.4,0,.7-.2,1.3-.2,2,0s.7.4.7.4,0,0,0,.1-.6-.4-.7-.4c0,0,.2.4.3.5.3.5-.2.5-.3.8s.2.8.5,1.1c.7.5.7-.2,1.1-.4s.4-.1.6,0c.5.9.6,2,.4,3Z"/>
        <path class="st31" d="M273.9,103.4c0-.1,0-.1.2-.2s0,0,0,0c0,0,.2,0,.3,0s.1-.1.2-.2.1,0,.2,0,0,0,0,0c0,0,.1,0,.1,0,0,0,0,0,0,0s.2,0,0,0c0-.1.2,0,.2-.3,0,0,.1,0,0,0,.2,0,.3,0,.5,0s.1,0,.1-.1c-.1,0,0-.2-.1-.3,0-.2-.4-.4-.6-.3h0c0,0-.1,0-.2,0s0,0,0,0,0,0,0,0c-.2,0-.3,0-.5,0s-.2-.2-.3,0c-.1,0,0-.1,0-.2,0-.2,0-.5.3-.6s.6,0,.8,0,.3-.1.5-.2c-.1,0-.3.2-.4.2-.2,0-.7,0-.9,0s-.2.3,0,.2,0-.2.2-.2.5.1.7,0,.3-.1.4-.2c.3,0,.5,0,.6.3,0,.3-.3.5-.3.9,0,0,.3-.3.3-.4.2-.3.2-.7.3-1s0,0,0,0c-.3,1.8-1.1,2.4-2.6,2.9Z"/>
        <path class="st31" d="M272,96.6s0,0,0,0c.3-.2.6-.4.9-.6,0,0-.1-.1-.2-.1,0,0,0,0,0,0,0,0,0,0,0,0-.3,0-.5.2-.8.3s0,0,0,0c0,0-.3.1-.4.2,0,0,0,0,0,0,0-.1,0-.4,0-.5,0,.1,0,.5-.2.5s-.2-.1-.2-.1c0,0-.3,0-.3-.1,0,0,.2,0,.1-.1.3-.2.8-.3,1.1-.4,0,0,.3,0,.4,0s0,0,0,0c.3,0,.4,0,.6,0s.1,0,.1,0c0,0,.2,0,.2,0s0,0,0,0c0,0,.1,0,.2,0-.1,0-.2.1-.3.2-.3.3-.8.7-1.3.8Z"/>
        <path class="st14" d="M272,96.5s0,0,0,0c-.2,0-.4,0-.6,0s-1.1.3-1.2.2,0-.2,0-.2c.1-.1.6-.5.8-.6,0,0-.1.1-.1.1,0,.2.2.1.3.1s.2.1.2.1c.1,0,.2-.4.2-.5,0,.1,0,.4,0,.5s-.1,0,0,0c0,0-.1,0-.1,0,.1,0,.3,0,.4,0s0,0,0,0c0,0,.2.2.2.2Z"/>
        <path class="st14" d="M273.9,103.4c-.3,0-.4.1-.7.2,0-.1.2-.1.2-.2s0-.3.2-.3c0,0,0,0,.1,0,0-.2-.2-.2-.3-.2,0,0,.1,0,.2-.1s.2,0,.3,0,0,0,0,0,.1,0,.1,0c0,0,0,0,0,0,.1,0,.3,0,.5,0s.1,0,.1,0c0,0,.1-.1.3-.1s0,0,0,0c0,0,0,0,0,0s0,0-.1,0,0,0,0,0c0,0-.1,0-.2,0s-.2.2-.2.2-.3,0-.3,0,0,0,0,0-.3,0-.2.2Z"/>
        <path class="st47" d="M273.4,102.9c.1,0,.3,0,.3.2,0,0,0,0-.1,0s0,0-.2,0c-.2,0-.2,0-.3.2s0,0,0,0c0,0,0,.1,0,.1s-.1,0-.2,0,0,0,0,0c0,0-.2,0-.1.1,0,0-.2,0-.3,0,0,0,0,0-.1-.1,0-.2.3-.3.4-.4.2-.1.6-.2.8-.4s.2-.3.4-.3.2,0,.3,0c0,.1,0,.1-.2.2-.1,0-.2.2-.3.2s-.2,0-.3.1c0,0,0,0,0,0Z"/>
        <path class="st60" d="M273.2,103.5c-.2,0-.3,0-.6,0,0,0,.1-.1.1-.1s0,0,0,0,.2,0,.2,0c0,0,0-.1,0-.1s0,0,0,0c.1-.1.1-.2.3-.2s.1,0,.2,0c-.1,0-.1.2-.2.3,0,.1-.3,0-.2.2Z"/>
        <path class="st31" d="M275.7,102.1c-.1,0-.3,0-.4,0s0,0,0,0c0,0,0,0-.1,0s0,0,0,0c-.1,0-.2,0-.2-.2s0,0,0,0-.2-.1-.2-.1,0,0,0,0c0,0-.1,0-.1,0,0,0-.1,0-.1,0,0,0-.2,0-.2,0-.1,0-.2.1-.3.2.1.3.5,0,.7.2-.2,0-.6,0-.8.2-.2,0-.3.2-.4.3,0,0-.1,0-.2,0s0,0,0,0,0,0,0,0c.2,0,0,0,.1-.2s.2,0,.2,0,.3-.7.4-.9,0,0,0,0c0,0,0,0,0-.1,0,0,0,.2,0,.2.1-.2.2-.1.3,0s.3,0,.5,0,0,0,0,0c0,0,0,0,0,0,0,0,.1,0,.2,0h0c.2-.1.5,0,.6.3s0,.3.1.3c0,0,0,0-.1.1Z"/>
        <path class="st21" d="M272.6,99.9c0,0,0,.2,0,.2,0,0,.3.1.3.1.2.2.4.2.5.5.2.4.2,1.3,0,1.6,0,0,0-.2,0-.3,0-.5,0-1.4-.6-1.6,0,0,0,0-.1,0s-.2-.2-.2-.3.1-.1.1-.2,0-.4-.2-.5-.2,0-.3-.2,0-.2,0-.3c0-.2.2-.3.2-.6s-.2-.8-.4-1.1-.2-.3-.3-.3c0,0,.1,0,.1,0,.4.3.9,1,.8,1.6s-.3.5-.3.6.2.2.3.2c0,.1.1.4.1.5Z"/>
        <path class="st31" d="M272.8,100.2s-.3-.1-.3-.1,0-.1,0-.2c0,0,0,.2,0,.2s.1,0,.1,0,0,0,0,0Z"/>
        <path class="st52" d="M275.2,102.2s-.3,0-.3,0h0c0,.1-.1.1-.2.1.1,0,0-.2-.1-.2-.2-.2-.5.1-.7-.2.1,0,.2-.2.3-.2s.2,0,.2,0,0,0,.1,0,0,0,.1,0,0,0,0,0c0,0,.2,0,.2.1s0,0,0,0c0,.1,0,.2.2.2s0,0,0,0c0,0,.1,0,.1,0s0,0,0,0c.1,0,.3.1.4,0-.2,0-.3,0-.5,0Z"/>
        <path class="st60" d="M275,102.6c-.1,0-.2.1-.3.1s0,0-.1,0c-.2,0-.3,0-.5,0s0,0,0,0,0,0-.1,0c0,0,0,0,0,0,0,0-.2,0-.3,0s-.2,0-.2.1c0,0,0,0,0,0,0,0,.2,0,.3-.1s.2-.1.3-.2.2,0,.2-.2c.2,0,.4,0,.6,0s.1,0,.2,0,.1,0,.2,0c0,.2-.1.1-.2.3Z"/>
        <path class="st21" d="M275.1,102.3c0,0-.1,0-.2,0h0c0-.2.3,0,.3,0,0,0,0,0,0,0Z"/>
        <path class="st21" d="M272,96.5s-.2-.2-.2-.2,0,0,0,0c-.2,0-.3,0-.4,0,0-.1,0,0,.1,0,.1,0,.3,0,.4-.2s0,0,0,0c.2-.2.5-.2.8-.3s0,0,0,0,0,0,0,0,.2,0,.2.1c-.3.2-.6.4-.9.6Z"/>
        <path class="st14" d="M274.7,102.3c-.2,0-.4,0-.6,0s-.3,0-.3,0c.2-.1.6-.2.8-.2s.2.1.1.2Z"/>
      </g>
      <path class="st31" d="M269.8,99.1c0,0-.2,0-.2,0s0,0,0,0c-.1,0-.3,0-.4,0,0-.1-.2,0-.2-.1.1,0,.2,0,.3-.1.3,0,.2-.4.1-.7h0c0,.1,0,0,.1,0,.1,0,.4.2.4.4s0,0,0,.1v.3Z"/>
      <path class="st38" d="M269.2,98.8c-.1,0-.2,0-.3.1s-.2,0-.3.1c0,0,0-.2,0-.3,0,0,0-.1.1-.2s.4-.4.5-.3c0,.2,0,.4-.1.5Z"/>
      <path class="st8" d="M273.3,102.1c-.1,0,0-.4-.1-.6s-.2-.7-.4-.9,0,0,0,0c0,0,0-.1,0-.2.6.2.7,1.1.6,1.6Z"/>
      <path class="st37" d="M272.6,100.4s0,0-.1,0c0-.1,0-.1,0-.1,0,0,0-.2,0-.2,0,0-.2,0-.3.1s0,0,0,0,0,0,0,0h0c0,0,0,0,0,0,.2,0,.6-.1.6-.4s0-.2,0-.3c0,0,0,0,0,0,0-.2-.3-.1-.3-.1s0,0,0,0c0,0,0,0,0-.1s0-.2,0-.2c0,0,0,0,.1,0,0,0,0,.2,0,.3,0,.2.2,0,.3.2s.2.4.2.5-.1.2-.1.2c0,0,.2.2.2.3Z"/>
      <g>
        <path class="st25" d="M273.3,102.1c0,0,0,.2,0,.3-.2.3-1.1.5-1.4.2s-.3-1.5-.2-1.8c.2-.1,0,.2,0,.2s.1.2.1.2c0,0,0,0,0-.1,0,0,0,.2,0,.1s0-.1,0-.1c0,0,0,0-.1,0,0-.1-.1-.2-.1-.2s.2-.2,0-.2c.3-.1.3-.2.6-.2s0,0,.1,0c0,0,0,0,.1,0s0,.1,0,.2c0,0,0,0,0,0,.1.1.3.7.4.9s0,.5.1.6Z"/>
        <g>
          <path class="st25" d="M272,101.1c0,0,0,0,0,.1,0,0-.1-.2-.1-.2,0,0,.1-.4,0-.2,0,0,0,0,0,0,0,0,0,0,0,0,.3,0,0,.2,0,.2s.1,0,.1.2Z"/>
          <path class="st60" d="M272.8,102.3c0,0-.2,0-.3,0,0,.1.5,0,.2.2s-.6,0-.7,0c-.1,0,0,0-.1-.2,0,0,.4,0,.4,0l-.4-.2c0-.1,0-.3,0-.5.3.1.6.3.9.6Z"/>
          <path class="st47" d="M273,102.2c-.3-.3-.6-.6-1-.8,0,0,0,0,0-.1.4.2.7.5,1,.9,0,0,0,0,0,0Z"/>
          <path class="st47" d="M272.9,102.3c-.3-.3-.6-.6-.9-.7,0,0,0,0,0-.1.4.2.7.5,1,.8,0,0,0,0,0,0Z"/>
          <path class="st37" d="M272.9,102.3s0,0,0,0c-.2-.3-.6-.5-.9-.6,0,0,0,0,0-.1.3.1.7.4.9.7Z"/>
          <path class="st14" d="M271.9,102.4c0,0,0-.1,0-.2l.4.2s-.3,0-.4,0Z"/>
          <path class="st43" d="M271.8,101.9s0,.3,0,.4c0,0,0-.4,0-.4,0,0,0,0,0,0Z"/>
          <path class="st25" d="M272,101.1s0,0,.1,0c0,0,0,.1,0,.1,0,0,0,0,0-.1Z"/>
          <path class="st8" d="M273,101c0,0,0,.2,0,.2,0,0,0-.2,0-.2Z"/>
          <path class="st8" d="M273,101s0,0,0-.1c0,0,0,0,0,.1Z"/>
          <path class="st25" d="M272.2,101s0,0,0,0c0,0,0,0,0,0Z"/>
          <path class="st8" d="M273,100.9s0,0,0-.1c0,0,0,0,0,.1Z"/>
          <path class="st25" d="M273.1,101.8s0,0,0,0h0Z"/>
          <path class="st8" d="M272.9,100.8s0,0,0,0c0,0,0,0,0,0Z"/>
          <path class="st25" d="M272.7,101.4h0c0,0,0,0,0,0h0Z"/>
          <path class="st25" d="M272.9,101.6h0c0,0,0,0,0,0h0Z"/>
          <path class="st25" d="M273,101.7h0c0,0,0,0,0,0h0Z"/>
          <path class="st8" d="M272.9,100.7h0c0,0,0,0,0,0h0Z"/>
        </g>
      </g>
      <path class="st43" d="M271,98.4s0,0,0,0,0,0,.1,0,0,0,.1,0c0,0,0,0,0,0,0,0-.2,0-.2,0,0,0,0,0,0,0-.1,0-.2-.2-.3-.3,0,.3-.4-.4-.4-.5,0,0,.3.5.4.4,0,0,0,0,0,0s0,0,0,0,0,0,0-.1c0,0,.3-.5.3-.7,0,0,0,0,.1,0,0,0,.1,0,.2,0,0,.4-.1.8-.3,1.1,0,0,0,0,0,0Z"/>
      <path class="st8" d="M271.3,98.6s0,0-.1,0c.2-.4.3-.9.3-1.4,0,0,0,0,0,.1,0,.3-.1,1-.3,1.3Z"/>
      <path class="st47" d="M271.5,97.1c0,.5,0,1-.3,1.4,0,0,0,0-.1,0,.2-.3.3-.7.3-1.1s0-.2,0-.2c0,0,0,0,0,0Z"/>
      <path class="st8" d="M272.3,98.3v.2c-.1-.3-.2-.6-.3-.8s-.3-.5-.2-.4h0c.2.2.4.6.4,1Z"/>
      <path class="st8" d="M271.5,99.1s0,0-.1,0c0-.1-.2-.2-.3-.3s-.1-.2-.2-.2h0s0,0,0,0c0,0,0,0,0,0,0,.1.5.3.5.4,0,0,0,0,0,0Z"/>
      <path class="st31" d="M270.8,99.1h-.1s-.5,0-.5,0c0,0,.1-.2.1-.2,0-.2-.1-.4-.1-.6,0,0,0,0,0,0s0,0,0,0c0,0,0,0,0-.1h0c.1.2.3.7.5.9Z"/>
      <path class="st1" d="M270,99.2c0,0-.2,0-.2,0h-.8s0,0,0,0h0c0-.2,0-.2.2-.2s.3,0,.4,0,0,0,0,0c0,0,.2,0,.2,0s0,0,0,0,0,0,0,0h0Z"/>
      <path class="st14" d="M270,99.1s0,0,0,0c0,0,.1,0,.1-.1.1-.1,0-.3,0-.4.2.3.1.5-.1.6Z"/>
      <path class="st1" d="M270.3,98.3l-.3-.5c.1,0,.3.3.3.4s0,0,0,.1c0,0,0,0,0,0Z"/>
      <path class="st14" d="M271.9,100.2c0-.2,0-.1-.1,0,.2-.2.4-.3.7-.3,0,.3-.4.3-.6.4Z"/>
      <path class="st14" d="M271.9,100.2s0,0,0,0c0,0,0,0,0-.1h0Z"/>
      <path class="st14" d="M270.7,98.1c-.1-.1-.3-.3-.3-.5l.5-.3c0,.1-.3.6-.3.7s0,0,0,.1,0,0,0,0Z"/>
      <path class="st60" d="M271,97.2s0,0-.1,0l-.5.3c0-.2.1-.3.2-.4s.3,0,.3,0,0,.1,0,.1Z"/>
      <path class="st37" d="M271,98.4s0,0,0,0c.2-.3.3-.7.3-1.1,0,0,0,0,0,0,0,.4-.1.9-.3,1.2Z"/>
      <path class="st37" d="M271.2,99.1c-.2,0-.5-.5-.6-.7s0-.1,0-.1l.7.9Z"/>
      <path class="st70" d="M268.8,101s-.1-.3-.1-.3c0,0-.3,0-.4.1-.1,0,0-.1,0-.2h.1c0-.1.1-.2.2-.2,0,0-.3,0-.2,0,0,0,0,0-.1,0,0,0,0,0,0-.2s0,0,0,0c0,0,0,0,0,0,0,0,.1,0,.2,0,0,.3.2.5.2.8Z"/>
      <path class="st70" d="M268.6,100.3h-.4c0-.1.1-.1.3-.2,0,0,0,.1,0,.2Z"/>
      <path class="st22" d="M268.6,100.3c0,0-.1,0-.2,0s0,.1,0,0h-.1s0,0,0,0h.4c0,0,0,0,0,0Z"/>
      <path class="st32" d="M268.4,101h0c0,0,.1-.1.2-.1,0,0-.1,0-.2.1Z"/>
      <path class="st62" d="M268.2,100.5s0,0,0,0h.1s0,0,0,0Z"/>
      <path class="st10" d="M268.3,100.7s0,0,0,0c0,0,0,0,.1,0s0,0,0,0h-.1Z"/>
      <path class="st73" d="M269.1,99c-.2,0-.2,0-.2.2s0,0,0,0c0,0,0,0,0,0,0,0,0,.1,0,.2,0,0-.3,0-.3,0,0,0,0,0,.1.1.1,0,.2,0,.3,0-.1,0-.2,0-.3,0s0,0,0,0c0,0,0,0,0,0s0,0,0,0c0,0,0,0,0-.2s0-.2,0-.2h-.2s0,0,0,0c.1,0,.1,0,.2,0,0,0,0,0,0,0,0,0,.4,0,.3-.1s-.1,0-.1,0c0,0-.1,0-.2,0,0,0,0,0,0,0,0,0,.2,0,.3-.1,0,.1.3,0,.2.1Z"/>
      <path class="st73" d="M268.5,99.8c0,0-.2,0-.2,0,0,0,0,0,0,0,0,0,0,0,0-.1s0,0,0,0,0,0,0-.1c0,0,0,0,0,0h0c0,0,0,0,.2,0,0,0,0,.2,0,.2Z"/>
      <path class="st66" d="M268.5,99.5s0,0,0,0c-.1,0-.1,0-.2.1h0c0-.2,0-.2.1-.2,0,0,0,.1-.1,0h.2c0-.1,0,0,0,0Z"/>
      <path class="st31" d="M272.3,99.5s0,0,0,0c0,0,0,.2,0,.2,0,0-.2,0-.2,0s-.1-.2-.1-.2c.1,0,.2,0,.3,0Z"/>
      <g>
        <path class="st1" d="M272.3,99.5c0,0-.2,0-.3,0,0,0,0,.2.1.2s.2,0,.2,0,0-.2,0-.2c0,0,0,.2,0,.3-.3,0-.5,0-.7.3-.2,0-.5.6-.7.8s-.3.2-.5.3-.2,0-.4-.1c0,0,0,.2,0,.2,0,0-.5.4-.6.4,0-.1-.2-.1-.1-.3,0,0,0,0,0,0s0,0,0,0c0-.1.3,0,.4-.2s.2-.2.2-.2c0,0,0-.2,0-.3-.2,0-.4.1-.6.2,0,0,0,0,0-.2s-.2-.2-.2-.2c0,0,0-.2,0-.3s0,0,0,0c0,0-.1,0,0-.2,0,0-.2.1-.2.2s0,0,0,0c0,0-.2,0-.2,0,0-.2,0-.2,0-.3s0,0,0,0,0,0,0,0,0,0,0,0c0,0,.2,0,.3,0,0-.2-.2-.2-.3,0,0,0,0-.1-.1-.1,0,0,.2,0,.3,0,0,0,0-.1,0-.2h.8c0,0,.2,0,.2,0s.2,0,.2-.1h.5c0,.1.1,0,.1,0,0,0,.3.1.3.1,0,0-.2-.2-.3-.2,0,0-.4-.6-.4-.7s0-.1,0-.2c0,0,0,0,0,.1.1.2.4.6.6.7s.1,0,.2,0,0,0,.1,0c.1,0,.3,0,.4-.1,0,0,0,.2,0,.2,0,0,0,0,0,.1s0,0,0,0,.2,0,.3.1Z"/>
        <path class="st25" d="M270.3,100.2c0,0-.2,0-.3-.1s0-.2,0-.3h0s0,0,0,0c0-.6,1.2-.4,1.6-.3s.3.2.2.4-.7.8-.9.9c-.3.1-.9,0-.7-.5l1-.4c-.3,0-.5.1-.8.2Z"/>
        <path class="st37" d="M269.8,99.9s0,0,0,0h0c0,0,0,.2,0,.3,0,0,.2,0,.3.1-.1,0-.3.1-.4,0s-.1-.2,0-.3Z"/>
        <path class="st14" d="M272,99.3h-.2s.2,0,.2,0Z"/>
      </g>
      <path class="st61" d="M269.8,102.3s0,0,0,0c0,0,0,0,0,0,0,0,0,0,0,0s0,0,0,0,0,0,.1,0h0Z"/>
      <g>
        <path class="st21" d="M270.7,103.3c-.6,0-.8-.1-1.4.2,0-.1-.2,0-.3,0-.1,0-.5-.5-.6-.6.1,0,.3,0,.4,0s.2,0,.2,0,.1,0,.2.1,0,0,0,0,.3,0,.3,0h-.3c.2,0,.5,0,.7-.1h0c0,0,0,0,0,0,0,0,.2,0,.2,0l-.2-.2s0,0,0,0c0,0,.1,0,.2,0s0,.2.2.2l.3.4Z"/>
        <path class="st1" d="M268.6,98.4c-.2.2-.5.4-.8.5s0,0,0,0,0,0,0,0c0,0-.1,0-.1,0s0,0,0,0c0,0-.2.1-.3,0,0-.2,0-.4.3-.5,0,0-.1,0-.2,0,0,0,.2-.1.2-.1,0,0,.2,0,.3,0,.2,0,.7-.5.9-.6,0,.3-.1.5-.4.5h0s0,0,0,0c0,0-.2,0-.3,0s0,0,0,0c0,0-.2,0-.2,0s-.1.2-.1.2c0,0,.1,0,.1,0,.2,0,.5-.4.7-.5s.1,0,0,.1Z"/>
        <path class="st31" d="M269.2,97.9c-.1,0-.2.2,0,.3,0,0-.2.2-.3.2s-.1,0-.2.1v-.2c0,0,.2-.2,0-.1s-.5.4-.7.5-.1,0-.1,0,0-.2.1-.2.2,0,.2,0,0,0,0,0c0,0,.2,0,.3,0s0,0,0,0h0c.3,0,.4-.2.4-.5,0,0,.3-.2.4-.3,0,0,0,0,0,0,0,.1,0,.3,0,.4Z"/>
        <path class="st47" d="M270.7,103.3l-.3-.4c-.2,0-.2-.2-.2-.2s-.1,0-.2,0c0-.1,0,0,0-.1.2,0,.3,0,.5,0,0,0,0,0,0,0s0,0,0,0,0,0,0,0,0,0,0,0,0,.1,0,.1c0,0,.1,0,.2,0s0,.2,0,.2c0,0,.1,0,.1.2-.1,0-.2,0-.3,0Z"/>
        <path class="st25" d="M271.1,103.3c0,0-.1,0-.2,0,0,0-.1-.1-.1-.2s0-.2,0-.2c0,0-.2,0-.2,0s0-.1,0-.1c0,0,0,0,0,0,0,0,0,0,0,0,0,0,0,0,0,0,0,0,0,0,0,0,0,0,.2,0,.3,0,0,0,.1.2.1.1.1.3.2.5.4.7Z"/>
        <path class="st28" d="M269.2,103.5c-.5.2-.6-.2-1-.5s-.4-.3-.5-.4c.2,0,.4.2.6.4s.5.6.6.6.2-.1.3,0Z"/>
        <path class="st47" d="M269.2,97.9c0,0,0,.2,0,.3,0,.2.1.6-.1.7.1-.1.1-.4.1-.5,0,0-.4.3-.5.3h0c0,0,.1,0,0-.1,0,0,.2-.2.3-.2s.1,0,.1-.1c0,0,0-.1,0-.2,0-.1,0-.3,0-.4s0,0,0,0c0,0,0,0,0-.2,0,.2,0,.4,0,.6Z"/>
        <path class="st21" d="M267.2,98.9c0,.4,0,.8-.3,1.1,0-.2.1-.4.2-.6s0-.8.2-.9.1,0,.2,0c-.2.1-.2.3-.3.5Z"/>
        <path class="st31" d="M268.5,100c-.2,0-.3,0-.3.3s0,0,0,0,0,0,0,0c0,0,0,.1,0,.2s0,0,0,0c0,0,0,0,0,.2s0,0,0,0h0c0,.2,0,.2,0,.3-.2,0-.3.1-.4-.2,0,0-.1,0-.2,0,0,0,0,0,0-.1s0,0,0,0,0-.1,0-.2,0,0,0,0,0,0,0,0c0,0-.2,0,0-.2,0,.2.1.1.2,0s.1,0,0-.1c0,0-.1,0-.2,0,0,0,.1-.1.1-.2,0,0,0,0,0,0s0,0,0,0c0,0,.2-.1.3-.1,0,0,0,0,0,0Z"/>
        <path class="st31" d="M268.4,99.2s0,0,0,0c0,0-.1,0,0,.2s0,0,.1,0c0,0,0,0-.1.1s0,0,0,0,0,0,0,0c0,0,0-.1,0-.1,0-.2-.1-.2,0-.4s0,0,0,0c0-.1,0-.1.2-.2,0,.2-.3.3,0,.5Z"/>
        <path class="st21" d="M268.4,99.2c-.3-.2,0-.3,0-.5,0,0,0,0,0,0h0c0,.2-.1.4-.2.5Z"/>
        <path class="st14" d="M268.8,98.6c0,0-.1.1-.1.2s0,0-.1.1h0c0-.2.1-.2.2-.3s.1,0,.2-.1c0,0,0,0,0,.1h0Z"/>
        <path class="st15" d="M268,100.2s-.1,0-.1,0c-.2-.1,0-.3,0-.3-.1.2,0,.1.2.1,0,0-.1.1-.1.2Z"/>
        <path class="st31" d="M267.8,100.3s0,0,0,0c0,0,.1,0,.1,0,0,0,0,0,.2,0,0,.1,0,0,0,.1-.1,0-.2.2-.2,0Z"/>
        <path class="st31" d="M268.2,99.8s0,0,0,0c-.2,0-.2,0,0-.2s0,0,0,0c0,0,0,0,0,0,0,0,0,.1,0,.1,0,0,0,0,0,0,0,0,0,0,0,.1Z"/>
        <g>
          <path class="st1" d="M268.6,98.6c0,0-.1,0-.2.1s0,0,0,0c-.1.1-.1.1-.2.2s0,0,0,0c-.1.2,0,.2,0,.4s0,0,0,.1c0,0,0,0,0,0h0s0,0,0,0h0s0,0,0,0c0,.1,0,.2,0,.2,0,0,0,.1,0,.1,0,0,0,0,0,.1,0,0,0,0,0,0-.1,0-.3.1-.2-.1-.1,0-.2.2,0,.3,0,0,0,0,0,0-.3.2,0,.1,0,.2s0,0,0,0,0,0,0,0c0,0,0,.2,0,.2,0,0,0,0,0,0,0,0,0,0,0,0,0,0,0,0,0,0,0,0,0,.2,0,.3l-.3.2c.1,0,0,0,.1,0s.1,0,.2,0l.5.8c0,0-.5,0-.5.1s0,.2,0,.3c-.2-.3-.5-1.3-.6-1.7s-.1-.4-.1-.7c.2-.3.3-.7.3-1.1.1.2.2,0,.3,0s0,0,0,0c0,0,.1,0,.1,0s0,0,0,0c0,0,0,0,0,0,.3-.1.5-.3.8-.5v.2Z"/>
          <path class="st28" d="M267.3,100.1s0,.1,0,0,0,0,0,0Z"/>
          <path class="st1" d="M267.3,101s0,0,0,.1c0,0,0-.1,0-.1Z"/>
          <polygon class="st31" points="268.1 99.6 268.1 99.6 268.1 99.6 268.1 99.6 268.1 99.6"/>
          <path class="st1" d="M267.7,100.7s0,0,0,0c0,0,0,0,0,0Z"/>
        </g>
        <path class="st60" d="M270,102.7s0,0,0,0c0,0,0,0-.1,0-.2,0-.4,0-.6,0h0c0,0,.1,0,.2,0,0,0-.3-.2-.3-.2s0-.1,0-.2c0,0,0,0,0,0,.1,0,.2.1.3.1s.1,0,.2-.1h0c0,.1-.2.1-.2.1.2.1.4.2.6.2s0,0,0,0c0,0,0,0,0,.1Z"/>
        <path class="st21" d="M269.2,102.6c0,0-.1,0-.1,0,0,0-.3-.2-.4-.2s0-.3-.1-.3h.1c0-.1-.3-.2-.2-.3,0,0,.2,0,.2,0h.1c0,.2,0,.1,0,.2-.1,0,0,0,0,0,0,0,0,0,0,0h-.1c.2.2.2.3.4.4h0Z"/>
        <path class="st31" d="M269.3,103h0c0,0,0,0-.2,0h0c.3,0,.6,0,.8,0h0c-.2.1-.5,0-.7.2Z"/>
        <path class="st21" d="M268.7,101.8s-.3,0-.3-.1h.1c0-.2-.2,0-.2,0,0,0,0-.1,0-.1s-.1,0-.2-.1c0,0,.2,0,.3,0,0,0,0,0,0,0,0,0,0,.2.1.2,0,0,0,0,0,0,0,0,0,0,0,0,0,0,0,0,0,0h0Z"/>
        <path class="st14" d="M269.9,102.9v-.2c0,0,0,0,0,0l.2.2s-.1,0-.2,0Z"/>
        <g>
          <path class="st31" d="M269.9,102.9s0,0,0,0c-.3,0-.6,0-.8,0h0c0,.1-.2.2-.2.1-.1,0-.3-.1-.4,0-.2-.1-.4-.3-.6-.4,0,0-.1-.1-.1-.2.1,0,0-.2,0-.3,0,0,.5,0,.5-.1l-.5-.8s-.1,0-.2,0c0,0,0-.1-.1,0l.3-.2c0,0,0-.2,0-.3,0,0,0,.1,0,0,0,.1,0,0,0,0,0,0,0,0,0,.1s.1,0,.2,0c0,.3.2.2.4.2s0,0,0,0c0,0,0,0,0,0,0,0-.3,0-.3,0,0,0,.2,0,.2.1,0,0,0,.1,0,.1s.2,0,.2,0h-.1c0,.2.2.2.3.2,0,0,0,0,0,0,0,0,.3,0,.4,0s0,.1,0,.2c-.1,0-.3,0-.4,0s-.2,0-.2,0c0,0,.3.2.2.3h-.1c0,0,0,.3.1.4s.3.2.4.2,0,0,.1,0c.2,0,.4,0,.6,0v.2Z"/>
          <path class="st42" d="M268.5,101.2s0,0,0,0c0,0,0,0,0,0,0,0,0,0,0,0,0,0,0,0,0,0Z"/>
          <path class="st62" d="M268,102.1s0,0,0,0,0,0,0,0Z"/>
        </g>
        <path class="st28" d="M269.2,103.1h0s.3,0,.3,0c0,.2-.2.1-.3,0s0,0,0,0Z"/>
        <path class="st37" d="M269.1,98.2c-.1-.1,0-.3,0-.3,0,0,0,.1,0,.2,0,0-.1,0-.1.1Z"/>
        <path class="st62" d="M268.6,99s0,0,0,0,0,0,0,0,0,0,0,0c0,0-.1,0-.2,0,0,0,0,0,0,0,0,0,.1-.2.2-.3s0,0,.1-.1c0,0,0,.2,0,.3Z"/>
        <path class="st47" d="M269.5,102.2c0,0,0-.1.1,0,0,0,0,0,0,0,0,0,0,0,0,0,0,0,.1.1.2.2-.2,0-.4-.1-.6-.2,0,0,.1,0,.2,0Z"/>
        <path class="st28" d="M269.2,102.6c-.2,0-.2-.2-.4-.4h.1s0,0,0,0h.2s0,0,0,0c0,0,0,0,0,0,0,0,0,.1,0,.2s.4.2.3.2c0,0-.1,0-.2,0Z"/>
      </g>
      <path class="st22" d="M268.7,101.6s0,0,0,0,0,0,0,0c0,0,.3,0,.3,0s0,.1,0,.2-.2,0-.3,0Z"/>
      <g>
        <path class="st0" d="M270,102.2c-.1,0,0,0-.2,0h0c0,0,.2-.1.1-.2,0,0-.2,0-.2.2,0,0,0,0,0,0,0-.1,0,0-.1,0h0c0,0-.1,0-.2,0,0,0-.1-.2-.3-.1h0c0,0-.2,0-.2,0,0,0,0,0,0,0,0-.1-.1,0,0,0h-.1c.1-.1.3,0,.4-.1,0,0,0-.1,0-.2,0,0-.3,0-.4,0s0,0,0,0h0c0-.1.2-.1.3-.2s0-.2,0-.2c0,0-.3,0-.3,0,0,0,0,0,0,0h.3c0,0,0-.1,0-.2,0,0,0,0,0,0,0,0,0,0,0,0,0,0,0,0,0,0s0,0,0,0c0,.1.2.5.3.5s0,0,0,0c0,0,0,0,0,0,0,.1.2.1.2.1s0,.2.1.2.2,0,.3-.2c0,0,.1,0,.2.1s0,0,0,0Z"/>
        <path class="st71" d="M269.7,102.2c0,0-.1,0-.1,0,0-.2.1-.1.2-.2.1.1,0,.2-.1.2Z"/>
        <path class="st71" d="M269.3,102c0,0-.3.1-.3,0h0c0,0,.1,0,.2,0Z"/>
        <path class="st22" d="M269.4,102.1s-.2,0-.2,0c0,0,.1-.2.2,0Z"/>
        <path class="st35" d="M268.9,101.3s0,0,0,0c0,0,0,0,0,0Z"/>
      </g>
      <path class="st71" d="M268.5,101.2s0,0,0,0c0,0,.3,0,.3,0-.1,0-.2,0-.3,0Z"/>
      <path class="st62" d="M268.9,99.2c0,0,0,0,0,0h0Z"/>
      <path class="st73" d="M268.4,100.6s0,0,0,0c-.1,0,.2-.1.2,0,0,0-.1,0-.2,0Z"/>
      <path class="st70" d="M268.6,99.1s0,0,0,0c0,0,.1,0,.2,0s0-.1.1,0c0,.1-.3.2-.3.1Z"/>
    </g>
  </g>
  <g id="Witch">
    <animateTransform attributeName="transform" type="rotate" from="0 142 142" to="360 142 142" dur="5s" repeatCount="indefinite" />
    <g>
      <g>
        <g>
          <path class="st2" d="M63.1,249.3c0-.1.3-.8.3-.8s0,0,0,0c0,0,0-.5,0-.4s.3.4.3.4c0,.1-.3.4-.2.5s.3-.2.4,0c-.3,0-.5.7-.7.3Z"/>
          <path class="st2" d="M63.9,249.6c0-.2.4-.4.5-.6s0,0,0-.1c0,0,0,0,0,0,.1-.8.4,0,.3.2s-.4.3-.3.4.5,0,.5,0c-.2,0-.7.3-.8.3s0,0,0-.1Z"/>
          <g>
            <path class="st67" d="M59.2,255.3c.3.2.7.4,1.1.5-.2.1-.3.3-.3.5,0,.5.7.5,1,.7-.2,0-.3,0-.5,0-.4,0-.5.1-.9-.3s-.5-1-.4-1.4Z"/>
            <path class="st67" d="M59.2,255.3c-.2-.1-.7-.5-.7-.7.3.3.5.5.8.6s0,0,0,0c.3.2.5.3.9.4s.7.2,1,.3c-.1.1-.9,0-1.1-.1-.3-.1-.7-.3-1.1-.5Z"/>
            <path class="st11" d="M58.5,254.6s0,0,0,0c.1,0,.8.2,1,.2,0,.2-.2.3-.2.5-.3-.2-.6-.4-.8-.6Z"/>
            <path class="st11" d="M60.3,255.7c.1,0,.5-.2.6-.2s.6.3.5.5c-.4,0-.7-.1-1-.3Z"/>
          </g>
          <g>
            <path class="st44" d="M60.6,249.8s0,0,0,0c.5,0,1.1,0,1.7-.1s.6,0,.9-.2.8-.6,1.1-.6,0,0,0,0c0,0,0,0,0,.1,0,.2-.4.4-.5.6-.1,0-.3,0-.4,0-.6.2-1.3.6-1.9.7-.7-.3-1.4-.2-2.1-.1,0-.3.8-.5,1.1-.5Z"/>
            <path class="st24" d="M60.6,249.8c.5-.2,1.8-.3,2.1-.7s.3-.4.5-.5,0,0,0,0c0,0-.3.7-.3.8l-.7.3c-.5,0-1.1,0-1.7.1s0,0,0,0Z"/>
            <path class="st24" d="M60.3,254.3c0,0,.2.2.3.3s0,0,0,0c0,0,0,0,.1,0l-.5.2c0,0,0-.1,0-.2,0-.2-.2-.2,0-.4s0,0,0,0Z"/>
            <path class="st19" d="M58.8,250.7s0,0,0,0h0c0,0,0,0,0,0Z"/>
            <g>
              <path class="st27" d="M60.5,252.8c.1-.1.4-.3.5-.5s0,0,0-.1c0-.1-.7-.6-.9-.8s-.2-.2-.2-.3c-.1-.2-.2-.5-.4-.7,0,0,0,0,0,0,.7-.1,1.4-.1,2.1.1s.2,0,.2,0,.2.3.2.4c.2.3.5.6.7.9s.1.2.1.3c0,.6-1,.7-1.3,1s-.3.9-.5,1.3c0-.5-.3-1.1-.6-1.6Z"/>
              <path class="st44" d="M60.8,254.6s0,0-.1,0c-.3-.3-.2-.8-.4-1s0,0,0,0c0,0,0,0,0-.1,0-.1,0-.2,0-.4,0-.2-.3-.6-.4-.8s0,0,0,0c0-.2-.4-.8-.5-.8s-.3-.1-.4-.3c0-.1,0-.1,0-.3,0,0,0,0,0,0h0c0,0,0,0,0,0,.1,0,0,0,.2,0,0-.2,0,0,.1,0h0c0-.1,0,0,0,0h0c0,0,0,0,.1.1,0,.1,0,.2,0,.3.2.5.9,1,1.1,1.6s.5,1.1.6,1.6c0,.1-.2.3-.3.2Z"/>
              <path class="st64" d="M60.3,254.3s0,0,0,0c0-.2-.1-.6,0-.8,0,0,0,0,0,0,0,0,0,0,0,0,0,0,0,0,0,.1,0,.4,0,.7.3,1-.1,0-.2-.2-.3-.3Z"/>
              <path class="st24" d="M59.6,252.1s0,0,0,0c.1.2.4.6.4.8,0,0,0,.2,0,.3-.1-.6-.1-.6-.4-1.2Z"/>
              <path class="st13" d="M60.1,253.4s0,0,0,0c0-.1,0-.2,0-.3,0,.2,0,.3,0,.4,0,0,0,0,0,0,0,0,0,0,0,0Z"/>
              <path class="st51" d="M60.6,254.5c-.2-.3-.3-.7-.3-1,0,0,0,0,0,0,.1.3,0,.8.4,1,0,0,0,0,0,0Z"/>
            </g>
            <g>
              <path class="st44" d="M59.3,255.2c0-.2,0-.3.2-.5s0-.3,0-.3c0,0,0,0,0,0s0,0,0,0,0,0,0,0,0,0,0,0,0,0,.1,0,0-.1.1-.1c.1,0,.2.2.3.2,0,0,0-.2,0-.3,0,0,0,0,0,0,0,0,0,0,0,0-.2.3,0,.2,0,.4s0,.1,0,.2,0,0,0,0c0,0,0,.1,0,.2,0,.2-.2,0-.2,0s-.5.2-.6.2c0,0,0,0,0,0Z"/>
              <path class="st35" d="M59.6,254.9s0,0,0,0,0,0,0,0c0,0,0,0,.1,0,0,0-.2,0,0,0,0,0-.1,0-.1,0Z"/>
              <path class="st65" d="M59.6,255.1s-.1,0-.1-.1c0,0,.1.1.2.1,0,0-.1,0-.1,0Z"/>
              <path class="st65" d="M59.9,255h0s0,0,0,0h0Z"/>
            </g>
          </g>
          <g>
            <path class="st20" d="M63.6,252.3s0,0,0,0h.3s-.2,0-.2,0c0,0,0,0,0-.1s0-.2.1-.2.2.1.2.2,0,.2,0,.3v.2c-.2,0-.4.3-.4-.2Z"/>
            <path class="st20" d="M63.7,252.1s.3,0,.2,0h-.3s0,0,0,0c0,0,0,0,0,0Z"/>
            <path class="st48" d="M63.8,252.3c0-.1.2,0,.1,0h-.1Z"/>
            <polygon class="st72" points="63.7 252.4 63.7 252.4 63.7 252.4 63.7 252.4 63.7 252.4"/>
          </g>
        </g>
        <g>
          <path class="st19" d="M62.8,251.8l.9.2c0,0,0,0,0,.1,0,0,0,0,0,0,0,0,0,0,0,0,0,0,0,0,0,0l-.7-.2c0-.1,0-.2-.1-.3Z"/>
          <g>
            <path class="st19" d="M58.7,250.8c0,.1,0,.1,0,.3-.7-.2-1.3-.3-2-.5,0,0,0-.2,0-.2l1.9.5Z"/>
            <path class="st19" d="M59.3,250.9h.6c0,.2.2.4.2.5l-.8-.2c0,0,0-.2,0-.3Z"/>
          </g>
          <path class="st65" d="M66.2,253h0c.1,0,.2,0,.3,0,.3,0,.6.1.9.2,0,0,0,0,0,0-.2,0-.6-.1-.8-.2s0,0,0,0h0c.3,0,.6.1.9.2,0,0,0,0,0,0s-.5,0-.6-.1h0c.2,0,.4,0,.6,0,0,0,0,.1,0,.2-.2,0-.4,0-.6-.1s-.3,0-.5-.1Z"/>
          <path class="st65" d="M66.2,253.4h0c.4,0,.7.2,1.1.2,0,0,0,0,0,0-.2,0-.4,0-.6-.1h0c.1,0,.5,0,.6,0s0,0,0,0c0,0,0,0,0,0,0,0,0,.1,0,.2-.3,0-.5-.1-.8-.2h0c.3,0,.6.1.8.2,0,0,0,0,0,0s-.4,0-.4,0c-.2,0-.5-.1-.7-.2Z"/>
          <path class="st18" d="M66.3,251.8s0,0,0,0c0,0,0,0,0,0s0,0,0,0c0,0,0,0,0,0s0,0,0,0c0,0,0,0,0,0,0,0,.1,0,.2,0,0,0-.1,0-.2,0h0c.1,0,.9,0,.9,0s0,0,0,0h-.7s.7,0,.7,0c0,0,0,0,0,0-.2,0-.5,0-.7,0,0,0,0,0,0,0s0,0,0,0,0,0,0,0c0,0,0,0,0,0s0,0,0,0c0,0,0,0,0,0,0,0,0,0,0,0,0,0,0,0,0,0,0,0,0,0,0,0,0,0,0,0,0,0Z"/>
          <path class="st18" d="M66.3,252.2s0,0,0,0c0,0,.4,0,.4,0,0,0,0,0,0,0h0c0,0,.7,0,.8,0s0,0,0,0c0,0-.6,0-.7,0h.7c-.3,0-.6,0-.9,0s-.2,0-.2,0Z"/>
          <path class="st18" d="M66.5,253.4c.2,0,.4,0,.6.1,0,0,.1,0,.2,0,0,0-.1,0-.2,0-.2,0-.4-.1-.6-.2s0,0,0,0c0,0,0,0,0,0,.1,0,.9.2.9.2,0,0,0,0,0,0,0,0,0,0,0,0,0,0-.5,0-.6-.1s-.2,0-.3,0,0,0,0,0c0,0,.2,0,.2,0Z"/>
          <path class="st74" d="M66.2,251.7h1.3c0,0,0,.2,0,.2h-.7c0,0,.7,0,.7,0,0,0,0,0,0,0,0,0-.8,0-.9,0-.2,0-.4,0-.6,0h.2Z"/>
          <path class="st18" d="M66.3,252.8s0,0,0,0c.1,0,.2,0,.3,0,0,0,0,0,.1,0,.2,0,.4,0,.5.1s0,0,0,0c0,0,0,0,0,0-.2,0-.4,0-.6-.1s-.3,0-.4,0,0,0-.1,0Z"/>
          <path class="st18" d="M66.1,251.7c.2,0,.4,0,.7,0s.7,0,.7,0h-1.3c0,0,0,0,0,0Z"/>
          <path class="st18" d="M66.5,252.4c.1,0,.2,0,.3,0s.6,0,.6,0h0c0,0,0,0,0,0-.1,0-.3,0-.4,0s-.2,0-.2,0c0,0,0,0,0,0,0,0,0,0-.1,0,0,0,0,0,0,0Z"/>
          <path class="st19" d="M64,252.5v-.2s0,.1,0,0v-.4c0,0,.1,0,.1,0v.5c-.1,0-.2,0-.2,0Z"/>
          <path class="st18" d="M66,253.4c.1,0,.3,0,.4.1.3,0,.5.1.8.2,0,0,0,0,0,0s-.4,0-.5-.1c-.2,0-.5-.1-.8-.2h0Z"/>
          <path class="st18" d="M66.7,253.1c.2,0,.4,0,.6.1,0,0,0,0,0,0h0c-.3,0-.6-.1-.9-.2h.3Z"/>
          <path class="st6" d="M64.1,252.5v-.5c0,0,0,0,.1,0v.5c0,0,0,0-.1,0Z"/>
          <path class="st18" d="M66.7,252.1c.1,0,.3,0,.4,0s.4,0,.4,0,0,0,0,0c0,0-.7,0-.8,0h0Z"/>
          <path class="st18" d="M66.5,252.3s0,0,0,0c.3,0,.6,0,.9.1,0,0,0,0,0,0-.2,0-.4,0-.6,0s-.2,0-.3,0h0Z"/>
          <path class="st26" d="M66.7,252.5s0,0,0,0h.7s0,0,0,0c0,0-.3,0-.4,0h0c.1,0,.3,0,.4,0s0,0,0,0c0,0,0,.1,0,.2h-.7c0,0,0-.1,0-.1Z"/>
          <path class="st6" d="M64.3,252.1s0,0,0,0c0,0,0,.4,0,.5,0,0,0,0,0,0v-.5Z"/>
          <path class="st18" d="M66.7,252.5h.7c0,0,0,.1,0,.1,0,0-.3,0-.4,0s-.1,0-.1,0-.1,0-.1,0Z"/>
          <path class="st26" d="M66.7,252.8s.6.1.6,0h0c0,0-.2,0-.3,0h0c0,0,.2,0,.3,0,0,0,0,0,0,.1h-.6c0-.1,0-.1,0-.1Z"/>
          <path class="st18" d="M66.9,251.9c.2,0,.4,0,.6,0s0,0,0,0c-.2,0-.4,0-.6,0s0,0,0,0h0Z"/>
          <path class="st18" d="M66.7,252.9s0,0,0,0c0,0,.3,0,.4,0s.1,0,.2,0c-.1,0-.5,0-.6,0s0,0,0,0Z"/>
          <path class="st26" d="M67,252.7h0c0,0,.4,0,.4,0,0,0,0,0,0,0,0,0-.3,0-.3,0h0c.1,0,.3,0,.4,0,0,0,0,.1,0,.1-.1,0-.3,0-.4,0Z"/>
          <path class="st18" d="M66.8,252.8h.6c0,.2-.1.1-.2.1s-.3,0-.4,0,0,0,0,0Z"/>
          <path class="st7" d="M66.8,251.9c.2,0,.5,0,.7,0,0,0,0,0,0,0,0,0,0,0,0,0-.2,0-.4,0-.6,0s0,0,0,0Z"/>
          <path class="st12" d="M64.2,252s0,0,0,0v.5c0,0,0,0-.1,0v-.5Z"/>
          <path class="st12" d="M64.1,252.5v-.5c0,0,0,0,.1,0v.5c0,0,0,0-.1,0Z"/>
          <path class="st76" d="M66.8,252.9h0c.1,0,.5,0,.6,0,0,0,0,0,0,0,0,0,0,0,0,0-.2,0-.4,0-.5-.1Z"/>
          <path class="st74" d="M66.8,252.4h0c.2,0,.4,0,.6,0,0,0,0,0,0,0,0,0-.5,0-.6,0Z"/>
          <path class="st63" d="M64,252.3c0,0,0-.3,0-.3,0,0,0,0,0,0v.4c0,0,0,0,0,0Z"/>
          <path class="st57" d="M66.8,252.8h0c0,0,.3,0,.4,0h0c0,0-.3,0-.4,0Z"/>
          <path class="st18" d="M66.4,253.4c.1,0,.2,0,.3,0,.2,0,.4.1.6.1,0,0,0,0,0,0-.4,0-.7-.2-1.1-.3s0,0-.1,0,0,0-.1,0c0,0,.4,0,.5,0Z"/>
          <path class="st18" d="M65.8,253.3c0,0,.2,0,.3,0s0,0,.1,0c.2,0,.5.1.7.2s.4,0,.4,0,0,0,0,0c-.3,0-.6-.1-.8-.2s-.5-.1-.7-.2Z"/>
          <path class="st18" d="M66.1,252.8c.1,0,.2,0,.3,0s.3,0,.4,0,.5,0,.6.1,0,0,0,0c-.3,0-.6-.1-.9-.2s-.3,0-.4,0c0,0,0,0,0,0Z"/>
          <path class="st18" d="M66.4,252.6s0,0,0,0,0,0,0,0c0,0,0,0,0,0,.1,0,.3,0,.4,0s.3,0,.4,0c0,0-.2,0-.3,0s-.2,0-.4,0,0,0,0,0h-.2c0,0,0,0,0,0Z"/>
          <path class="st18" d="M66.7,252.5c0,0,.2,0,.2,0s.3,0,.4,0,0,0,0,0h-.7c0,0,0,0,0-.1Z"/>
          <path class="st18" d="M66.5,253c.2,0,.7.1.8.2s0,0,0,0c-.3,0-.6-.1-.9-.2h0Z"/>
          <path class="st18" d="M66.7,252.7c.1,0,.2,0,.4,0s.2,0,.3,0h0c0,0-.6,0-.6,0s0,0,0,0Z"/>
          <path class="st18" d="M66.8,252.6s0,0,0,0c0,0,0,0,.1,0s.3,0,.3,0,0,0,0,0c0,0-.4,0-.4,0s-.1,0-.2,0Z"/>
          <path class="st56" d="M66.5,253.3c.2,0,.4.1.6.2-.2,0-.4,0-.6-.1h0Z"/>
          <path class="st34" d="M66.5,252.6c0,0,.2,0,.2,0,0,0,.1,0,.2,0h0c-.1,0-.3,0-.4,0Z"/>
          <path class="st72" d="M66.1,252.8c0,0,.1,0,.2,0s0,0,.1,0h0c-.1,0-.2,0-.3,0Z"/>
          <path class="st57" d="M66.7,252.7c.1,0,.2,0,.4,0h0c-.1,0-.2,0-.4,0,0,0,0,0,0,0Z"/>
          <path class="st57" d="M66.4,253.4h0c0,0,.2,0,.3,0h0c0,0-.2,0-.3,0Z"/>
          <path class="st30" d="M66.7,252.4c0,0,.2,0,.2,0h0c0,0-.2,0-.2,0s0,0,0,0Z"/>
          <path class="st57" d="M66.5,251.8s0,0,0,0c0,0,.1,0,.2,0,0,0-.1,0-.2,0Z"/>
          <path class="st72" d="M66.9,252.6s0,0,.1,0h0s0,0-.1,0h0Z"/>
          <path class="st56" d="M66,253.4h0s0,0,.1,0h0s0,0-.1,0Z"/>
          <g>
            <path class="st20" d="M64.3,252.6c0,0,0-.4,0-.5.1-.3,1.4-.4,1.8-.4h0s-.2,0-.2,0c.2,0,.4,0,.6,0h0s0,0,0,0c0,0,0,0,0,0s0,0,0,0c0,0,0,0,0,0s0,0,0,0c0,0,0,0,0,0s0,0,0,0c0,0,0,0,0,0s0,0,0,0c0,0,0,0,0,0,0,0,0,0,0,0s0,0,0,0c0,0,0,0,0,0s0,0,0,0c0,0,0,0,0,0s0,0,0,0c0,0,0,0,0,0,0,0,0,0,0,0,0,0,0,0,0,0h0c0,0-.2,0-.2,0,0,0,.2,0,.3,0s0,0,.1,0c.1,0,.3,0,.4,0,0,0-.2,0-.3,0-.2,0-.4,0-.6,0-.2,0-.3,0-.5,0,0,0,0,0-.1,0,0,0,0,0,.1,0,.2,0,.3,0,.5,0,0,0,.1,0,.2,0h0s-.1,0-.2,0c-.3,0-.5,0-.8,0,.3,0,.5,0,.8,0s0,0,.1,0h0s-.3,0-.3,0,0,0,0,0c0,0,0,0,0,0-.1,0-.3,0-.4,0,.2,0,.3,0,.5,0s.2,0,.2,0h0s-.3,0-.3,0c0,0,.2,0,.3,0,0,0,0,0,0,0,0,0,.1,0,.1,0,0,0,0,0,0,0,0,0,0,0,0,0,0,0,0,0,0,0s0,0,0,0c0,0,0,0,0,0,0,0,0,0,0,0,0,0,0,0,0,0,0,0,0,0,.1,0h0s0,0,0,0c0,0-.2,0-.2,0,0,0,0,0,0,0s0,0,0,0h-.1c0,0,0,0,0,0,0,0,0,0,0,0,.1,0,.1,0,.2,0s0,0,0,0c0,0,0,0,0,0,0,0,0,0,0,0,0,0,0,0,0,0s0,0,0,0h0s0,0,0,0c0,0,0,0-.1,0-.1,0-.2,0-.3,0s0,0,0,0c0,0-.1,0-.2,0s0,0,0,0c0,0-.1,0-.2,0,0,0,0,0,0,0,0,0-.3,0-.4,0h0c0,0,.2,0,.2,0,0,0,.1,0,.2,0,.2,0,.3,0,.5,0s0,0,0,0h0c-.1,0-.2,0-.3,0s-.3,0-.4,0c.1,0,.3,0,.4,0s.3,0,.5.1h-.3s0,0-.1,0c-.2,0-.5-.1-.7-.1.3,0,.5.2.8.2h0c-.4,0-.1,0,0,0,0,0,0,0,0,0h0s-.2,0-.2,0c0,0,0,0,0,0h0c0,0-.5-.1-.5,0,0,0,0,0,.1,0h0c0,0-.2,0-.3,0-.3-.1-.6-.2-.9-.4,0,0,0,0,0,0s.2.1.3.2c.3.1.6.3.9.4h0c-.6-.2-1-.4-1.5-.7s-.1-.1-.1-.1Z"/>
            <g>
              <path class="st56" d="M66.3,253.1c.2,0,.4.1.6.2h0c-.2,0-.3,0-.5-.1-.3,0-.5-.2-.8-.2.2,0,.5,0,.7.1Z"/>
              <path class="st76" d="M66.5,252.1h0c-.3,0-.5,0-.8,0,.3,0,.5,0,.8,0Z"/>
              <path class="st34" d="M66.5,252c.2,0,.4,0,.6,0h0c-.1,0-.3,0-.4,0s-.1,0-.2,0Z"/>
              <path class="st18" d="M66.9,252c0,0,.5,0,.5,0,0,0,0,0,0,0-.1,0-.3,0-.4,0Z"/>
              <path class="st57" d="M66.2,252.3h0s0,0,0,0c0,0,.2,0,.2,0h0s0,0,0,0c0,0-.2,0-.2,0Z"/>
              <path class="st34" d="M66.8,251.9s0,0,0,0h0c0,0-.2,0-.3,0,0,0,.2,0,.2,0Z"/>
              <path class="st57" d="M65.8,253.3c.2,0,.5.2.7.2h0c-.1,0-.3,0-.4,0-.3-.1-.6-.2-.9-.4s-.2-.1-.3-.2,0,0,0,0c.3.2.6.3.9.4Z"/>
              <path class="st57" d="M65.7,252.8s.1,0,.2,0,0,0,.2,0c.1,0,.3,0,.4,0h0c-.2,0-.3,0-.5,0s-.2,0-.2,0Z"/>
              <path class="st20" d="M65.9,252.8s-.1,0-.2,0c0,0-.1,0-.2,0h0c0,0,.3,0,.4,0s0,0,0,0Z"/>
              <path class="st34" d="M66.5,252.3c.1,0,.2,0,.3,0h0c-.1,0-.2,0-.3,0s-.2,0-.3,0h.3Z"/>
              <path class="st72" d="M66.2,253h0c-.1,0-.3,0-.4,0,.1,0,.3,0,.4,0Z"/>
              <path class="st45" d="M66.2,252.2h0c-.2,0-.3,0-.5,0,.1,0,.3,0,.4,0Z"/>
              <path class="st57" d="M66.3,252.2s.3,0,.3,0,.2,0,0,0-.4,0-.4,0Z"/>
              <path class="st56" d="M66,252c.2,0,.3,0,.5,0-.2,0-.3,0-.5,0Z"/>
              <path class="st72" d="M66.3,253.2s0,0,0,0h0s0,0,0,0c-.2,0-.4-.1,0,0Z"/>
              <path class="st40" d="M65.3,252.5s0,0,0,0c0,0,.2,0,.3,0h-.3Z"/>
              <path class="st74" d="M65.6,251.8s.1,0,.1,0c0,0,.1,0,.2,0,0,0-.2,0-.3,0Z"/>
              <path class="st56" d="M66.5,252.8s.3,0,.3,0h-.3Z"/>
              <path class="st56" d="M66.4,252.7h.2c-.1,0-.1,0-.2,0Z"/>
              <path class="st72" d="M65.9,252.2c0,0,.2,0,.2,0,0,0-.2,0-.2,0Z"/>
              <path class="st56" d="M66.6,252.9s0,0,.1,0c0,0,0,0,0,0h0s0,0-.1,0Z"/>
              <path class="st72" d="M66.5,252.6s0,0,0,0c0,0,0,0,0,0h.1Z"/>
              <path class="st72" d="M65.9,252.2s0,0-.1,0c0,0,0,0,.1,0Z"/>
              <path class="st56" d="M66,252s0,0-.1,0c0,0,0,0,.1,0Z"/>
              <path class="st20" d="M65.7,253.3s.1,0,.1,0c0,0,0,0-.1,0Z"/>
              <path class="st30" d="M66.5,252.4s0,0,.1,0c0,0-.1,0-.1,0Z"/>
              <path class="st57" d="M66.7,252.5s0,0,0,0c0,0,0,0,0,0Z"/>
              <path class="st20" d="M66,253.2s0,0,0,0h0s0,0,0,0Z"/>
              <path class="st72" d="M66.3,251.8s0,0,0,0c0,0,0,0,0,0Z"/>
              <path class="st57" d="M66.4,251.9s0,0,0,0c0,0,0,0,0,0Z"/>
              <path class="st56" d="M66.4,251.9s0,0,0,0c0,0,0,0,0,0Z"/>
              <path class="st57" d="M66.2,252.2c0,0,0,0,0,0s0,0,0,0Z"/>
              <path class="st57" d="M66.5,251.8s0,0,0,0c0,0,0,0,0,0Z"/>
              <path class="st72" d="M66.3,251.8s0,0,0,0c0,0,0,0,0,0,0,0,0,0,0,0Z"/>
              <path class="st30" d="M66.7,252.4s0,0,0,0c0,0,0,0,0,0Z"/>
              <path class="st57" d="M66.7,251.9s0,0,0,0c0,0,0,0,0,0Z"/>
              <path class="st57" d="M66.3,251.9s0,0,0,0c0,0,0,0,0,0Z"/>
              <path class="st57" d="M66.7,251.9s0,0,0,0c0,0,0,0,0,0Z"/>
              <path class="st57" d="M66.4,251.9s0,0,0,0c0,0,0,0,0,0Z"/>
              <path class="st34" d="M66.5,252.6s0,0,0,0c0,0,0,0,0,0Z"/>
              <path class="st57" d="M66.4,251.8s0,0,0,0c0,0,0,0,0,0Z"/>
              <path class="st57" d="M66.5,251.9s0,0,0,0c0,0,0,0,0,0Z"/>
              <path class="st57" d="M66.6,251.9s0,0,0,0c0,0,0,0,0,0Z"/>
              <path class="st56" d="M66.4,251.9s0,0,0,0c0,0,0,0,0,0Z"/>
            </g>
          </g>
          <path class="st57" d="M66.4,252.9c.1,0,.3,0,.4,0h0c-.1,0-.3,0-.4,0h0Z"/>
          <path class="st56" d="M67.1,253.5c0,0,.1,0,.2,0,0,0-.1,0-.2,0Z"/>
          <g>
            <path class="st18" d="M66.3,253.2c.2,0,.3,0,.5.1h0c.1,0,.4,0,.5.1,0,0,0,0,0,0-.3,0-.6-.1-.8-.2s0,0,0,0h0Z"/>
            <path class="st74" d="M66.4,253.3h0c.3,0,.6.1.8.2s0,0,0,0c0,0,0,0,0,0s-.8-.2-.9-.2Z"/>
            <path class="st56" d="M67,253.3s0,0,0,0c0,0,.2,0,.3,0,0,0-.2,0-.2,0Z"/>
          </g>
        </g>
      </g>
      <polyline class="st65" points="60.9 254.7 62 254.7 62.8 255.3 60.7 255.5 60.3 255.7 59.8 255.5 59.4 255.3 60 255.1 60.2 255.2 60.3 255.1 60.3 255 60.3 254.9 60.8 254.6 60.9 254.7"/>
      <path class="st65" d="M61.6,254.6"/>
    </g>
  </g>
  <g id="Moon">
     <animateTransform attributeName="transform" type="rotate" from="0 142 142" to="360 142 142" dur="21s" repeatCount="indefinite" />
    <path class="st4" d="M142.9.7c-1.4.4-2.6,1.5-2.8,3.1-.5,3.7,4,5.6,6.2,2.8h0s-.1.2-.1.2c-2.5,3.6-8.2,1.2-7.2-3.1s2-3.1,3.6-3,.1,0,.1,0Z"/>
    <path class="st9" d="M142.9.7s-.1,0-.1,0c-1.6-.1-3.3,1.5-3.6,3-1,4.3,4.7,6.6,7.2,3.1s.2-.3.3-.5c-.2.4-.5.9-.8,1.2s-1,.7-1.5.9c-2.1.7-4.4-.4-5.2-2.5s.5-4.4,2.5-5.1.3,0,.4-.1,0,0,0,0c-1.4,0-2.8.7-3.7,1.8-3.4,4.2,1.6,10,6.1,7.3s2-2,2.4-3.7,0,0,0,0c-.1,1.5-1,2.9-2.2,3.7s-2.1.9-3.2.8,0,0-.1,0h0c-.3,0-.7-.1-1-.2-3.2-1.1-4.3-5.2-2.1-7.9s2.9-2.1,4.5-1.8.3,0,.1.1Z"/>
    <path class="st46" d="M146.8,5.9s0,0,0,0c0,0,0,0,0,0Z"/>
    <path class="st49" d="M144.4,8.4c0,0,.2,0,.3,0,0,0-.2.1-.3.1-1.6.7-3.3.9-4.9,0s-1.3-1.1-1.5-1.6,0,0,0,0c0-.1,0-.1,0-.2-.5-1.4-.4-2.9.5-4.1s0,0,0,0c.9-1.1,2.3-1.8,3.7-1.8,0,0,0,0,0,0,0,0-.3,0-.4.1-2,.8-3.3,3-2.5,5.1s3.1,3.2,5.2,2.5Z"/>
    <path class="st16" d="M145.9,7.5c0,0-.1.2-.2.2-.2.2-.8.6-1.1.7s-.2,0-.3,0c.5-.2,1.1-.5,1.5-.9Z"/>
    <g>
      <path class="st16" d="M138,6.9s0,0,0,0c.1.5,1,1.3,1.5,1.6,1.6.9,3.3.7,4.9,0s.2-.1.3-.1c.3,0,.9-.5,1.1-.7s.2-.2.2-.2c.3-.3.6-.8.8-1.2-.1.1-.2.3-.3.5v-.2c.1,0,0,0,0,0,.2-.2.3-.4.4-.6h0c0,0,0,.1,0,.1-.4,1.6-.9,2.8-2.4,3.7-4.5,2.7-9.5-3.1-6.1-7.3,0,0,0,0,0,0-.9,1.2-1,2.7-.5,4.1s0,0,0,.2Z"/>
      <path class="st5" d="M146.1,7.9c0,0,0,0,0,0,0,.2-.7.9-.9,1.1s-.4.3-.6.5,0,0,0,.1c-.6.4-1.6.7-2.3.7s-1.1,0-1.6-.2c0,0,.3,0,.4,0,1.2.2,2.3,0,3.3-.6s1.3-1,1.8-1.7Z"/>
      <path class="st16" d="M138,6.9s0,0,0,0c0,0,0,0,0,0Z"/>
    </g>
  </g>
  <g id="Cloud">
     <animateTransform attributeName="transform" type="rotate" from="0 142 142" to="-360 142 142" dur="13s" repeatCount="indefinite" />
    <path class="st17" d="M11,95.5c.4,0,.8,0,1.1,0,0-.7.6-1.2,1.5-1.1-.2-1.1.7-2,1.9-2.2,1.9-.2,3.5,1.4,3.1,3-1.4,4.3-2.7,8.7-4.3,12.9-.5.6-1.4.9-2.4.6,0-.2.6.1.8,0,.7,0,1.2-.4,1.5-.9l4.2-12.9c.2-2-2.6-3.3-4.1-1.9s-.6,1-.5,1.7c-.9-.3-1.6.4-1.5,1.1-.4-.1-.8-.2-1.3-.2h-.1Z"/>
    <path class="st41" d="M11,95.5h.1c-.7.1-1.5.4-2,.7-1.7,1.2-1.7,3.5,0,5-1,1.4-.2,3.5,1.8,4.3,0,.1-.1.2-.2.3-.4,1.2.4,2.9,2.1,2.7-.2.2-.8-.2-.8,0-1.4-.5-2-1.8-1.5-2.9-2.2-.8-3.1-3.2-1.7-4.7-2.3-2.2-1.1-5.5,2.2-5.6Z"/>
    <path class="st3" d="M11.1,95.6c.4,0,.9,0,1.3.2,0-.7.6-1.4,1.5-1.1,0-.7,0-1.2.5-1.7,2.1.4,3.1,1.9,2.7,3.5l-3.4,10.5c-.8.9-3,.1-2.9-1.1,0-.1.1-.2.2-.3-2-.8-2.9-2.8-1.8-4.3-1.7-1.5-1.7-3.9,0-5s1.3-.6,2-.6Z"/>
    <path class="st68" d="M12.9,108.6c-1.7.1-2.5-1.5-2.1-2.7-.1,1.2,2.1,1.9,2.9,1.1l3.4-10.5c.4-1.6-.6-3.2-2.7-3.5,1.5-1.5,4.3,0,4.1,1.9l-4.2,12.9c-.3.5-.8.9-1.5.9Z"/>
  </g>

</svg>