<svg xmlns="http://www.w3.org/2000/svg" xmlns:xlink="http://www.w3.org/1999/xlink" viewBox="0 0 283.46 283.46"><defs><style>.cls-1{isolation:isolate;}.cls-2{fill:#1a3d0f;}.cls-3{fill:url(#linear-gradient);}.cls-34,.cls-4,.cls-7{fill:#ffde17;}.cls-20,.cls-21,.cls-22,.cls-4,.cls-6{opacity:0.8;}.cls-5{fill:url(#radial-gradient);}.cls-10,.cls-11,.cls-12,.cls-13,.cls-14,.cls-15,.cls-16,.cls-17,.cls-18,.cls-19,.cls-20,.cls-21,.cls-22,.cls-23,.cls-24,.cls-25,.cls-26,.cls-27,.cls-28,.cls-29,.cls-30,.cls-31,.cls-32,.cls-33,.cls-35,.cls-36,.cls-8,.cls-9{mix-blend-mode:overlay;}.cls-8{fill:url(#linear-gradient-2);}.cls-9{fill:url(#linear-gradient-3);}.cls-10{fill:url(#linear-gradient-4);}.cls-11{fill:url(#linear-gradient-5);}.cls-12,.cls-24,.cls-26,.cls-34,.cls-36{opacity:0.7;}.cls-12{fill:url(#linear-gradient-6);}.cls-13{opacity:0.25;fill:url(#linear-gradient-7);}.cls-14{fill:url(#linear-gradient-8);}.cls-15{fill:url(#linear-gradient-9);}.cls-16{opacity:0.6;fill:url(#linear-gradient-10);}.cls-17{fill:url(#linear-gradient-11);}.cls-18{fill:url(#linear-gradient-12);}.cls-19,.cls-27,.cls-28,.cls-35{opacity:0.5;}.cls-19{fill:url(#linear-gradient-13);}.cls-20{fill:url(#linear-gradient-14);}.cls-21{fill:url(#linear-gradient-15);}.cls-22{fill:url(#linear-gradient-16);}.cls-23{fill:url(#linear-gradient-17);}.cls-24{fill:url(#linear-gradient-18);}.cls-25{fill:url(#linear-gradient-19);}.cls-26{fill:url(#linear-gradient-20);}.cls-27{fill:url(#linear-gradient-21);}.cls-28{fill:url(#linear-gradient-22);}.cls-29,.cls-30{opacity:0.35;}.cls-29{fill:url(#linear-gradient-23);}.cls-30{fill:url(#linear-gradient-24);}.cls-31{fill:url(#linear-gradient-25);}.cls-32{fill:url(#linear-gradient-26);}.cls-33{fill:url(#linear-gradient-27);}.cls-35{fill:url(#linear-gradient-28);}.cls-36{fill:url(#linear-gradient-29);}</style><linearGradient id="linear-gradient" x1="119.2" y1="186.67" x2="173.57" y2="132.3" gradientUnits="userSpaceOnUse"><stop offset="0"/><stop offset="0.09" stop-color="#040304"/><stop offset="0.19" stop-color="#110a12"/><stop offset="0.3" stop-color="#251727"/><stop offset="0.4" stop-color="#422946"/><stop offset="0.51" stop-color="#68406d"/><stop offset="0.62" stop-color="#965c9e"/><stop offset="0.73" stop-color="#cb7cd6"/><stop offset="0.81" stop-color="#f294ff"/></linearGradient><radialGradient id="radial-gradient" cx="101.79" cy="140.53" r="106.45" gradientUnits="userSpaceOnUse"><stop offset="0"/><stop offset="0.1" stop-color="#050305"/><stop offset="0.21" stop-color="#120c12"/><stop offset="0.33" stop-color="#291b28"/><stop offset="0.45" stop-color="#493047"/><stop offset="0.57" stop-color="#714c6f"/><stop offset="0.7" stop-color="#a36da0"/><stop offset="0.82" stop-color="#dd93d9"/><stop offset="0.89" stop-color="#ffaafa"/></radialGradient><linearGradient id="linear-gradient-2" x1="148.57" y1="123.55" x2="143.46" y2="149.6" gradientUnits="userSpaceOnUse"><stop offset="0" stop-color="#1a3d0f" stop-opacity="0"/><stop offset="0.91" stop-color="#1a3d0f" stop-opacity="0.9"/><stop offset="1" stop-color="#1a3d0f"/></linearGradient><linearGradient id="linear-gradient-3" x1="77.92" y1="153.39" x2="179.88" y2="141.55" xlink:href="#linear-gradient-2"/><linearGradient id="linear-gradient-4" x1="195.08" y1="68.99" x2="179.58" y2="117.43" gradientTransform="translate(50.56 -59.21) rotate(28.77)" xlink:href="#linear-gradient-2"/><linearGradient id="linear-gradient-5" x1="127.95" y1="33.66" x2="115.17" y2="73.57" gradientTransform="translate(50.56 -59.21) rotate(28.77)" xlink:href="#linear-gradient-2"/><linearGradient id="linear-gradient-6" x1="100.77" y1="54.14" x2="88" y2="94.05" gradientTransform="matrix(1, -0.05, 0.05, 1, 5.85, -3.79)" xlink:href="#linear-gradient-2"/><linearGradient id="linear-gradient-7" x1="207.91" y1="33.58" x2="192.41" y2="82.02" gradientTransform="translate(234.53 -39.04) rotate(102.19)" xlink:href="#linear-gradient-2"/><linearGradient id="linear-gradient-8" x1="169.99" y1="-18.73" x2="161.71" y2="7.14" gradientTransform="translate(259.38 -20.79) rotate(114.77)" xlink:href="#linear-gradient-2"/><linearGradient id="linear-gradient-9" x1="106.39" y1="-6.42" x2="100.15" y2="13.06" gradientTransform="translate(285.41 110.1) rotate(169.52)" xlink:href="#linear-gradient-2"/><linearGradient id="linear-gradient-10" x1="131.66" y1="48.9" x2="125.43" y2="68.38" gradientTransform="matrix(-0.58, -0.81, 0.81, -0.58, 137.22, 211.55)" xlink:href="#linear-gradient-2"/><linearGradient id="linear-gradient-11" x1="154.55" y1="54.54" x2="148.32" y2="74.02" gradientTransform="translate(285.41 110.1) rotate(169.52)" xlink:href="#linear-gradient-2"/><linearGradient id="linear-gradient-12" x1="143.43" y1="66.36" x2="137.2" y2="85.84" gradientTransform="translate(285.41 110.1) rotate(169.52)" xlink:href="#linear-gradient-2"/><linearGradient id="linear-gradient-13" x1="124.67" y1="-61.3" x2="118.44" y2="-41.82" gradientTransform="translate(285.41 110.1) rotate(169.52)" xlink:href="#linear-gradient-2"/><linearGradient id="linear-gradient-14" x1="89.6" y1="0.93" x2="83.37" y2="20.41" gradientTransform="translate(238.83 184.79) rotate(-155.64)" xlink:href="#linear-gradient-2"/><linearGradient id="linear-gradient-15" x1="165.35" y1="45.24" x2="159.11" y2="64.72" gradientTransform="translate(238.83 184.79) rotate(-155.64)" xlink:href="#linear-gradient-2"/><linearGradient id="linear-gradient-16" x1="154.18" y1="51.48" x2="147.95" y2="70.97" gradientTransform="translate(238.83 184.79) rotate(-155.64)" xlink:href="#linear-gradient-2"/><linearGradient id="linear-gradient-17" x1="77.52" y1="3.32" x2="71.29" y2="22.81" gradientTransform="translate(238.83 184.79) rotate(-155.64)" xlink:href="#linear-gradient-2"/><linearGradient id="linear-gradient-18" x1="134.72" y1="-41.41" x2="123.47" y2="-6.26" gradientTransform="translate(285.41 110.1) rotate(169.52)" xlink:href="#linear-gradient-2"/><linearGradient id="linear-gradient-19" x1="84.95" y1="75.57" x2="75.2" y2="106.02" gradientTransform="translate(70.58 198.83) rotate(-85.11)" xlink:href="#linear-gradient-2"/><linearGradient id="linear-gradient-20" x1="75.16" y1="56.54" x2="65.42" y2="86.99" gradientTransform="translate(70.58 198.83) rotate(-85.11)" xlink:href="#linear-gradient-2"/><linearGradient id="linear-gradient-21" x1="196.16" y1="19.71" x2="186.42" y2="50.16" gradientTransform="matrix(0.06, 0.93, -0.75, -0.2, 169.28, -36.98)" xlink:href="#linear-gradient-2"/><linearGradient id="linear-gradient-22" x1="111.09" y1="20.43" x2="101.35" y2="50.88" gradientTransform="matrix(0.06, 0.93, -0.75, -0.2, 169.28, -36.98)" xlink:href="#linear-gradient-2"/><linearGradient id="linear-gradient-23" x1="225.63" y1="67.83" x2="213.7" y2="105.11" gradientTransform="matrix(0.54, 0.76, -0.74, 0.23, 103.68, -37.51)" xlink:href="#linear-gradient-2"/><linearGradient id="linear-gradient-24" x1="120.63" y1="48.02" x2="108.7" y2="85.3" gradientTransform="matrix(0.54, 0.76, -0.74, 0.23, 103.68, -37.51)" xlink:href="#linear-gradient-2"/><linearGradient id="linear-gradient-25" x1="212.64" y1="95.33" x2="118.28" y2="120.59" xlink:href="#linear-gradient-2"/><linearGradient id="linear-gradient-26" x1="147.79" y1="177.62" x2="177.26" y2="161.4" xlink:href="#linear-gradient-2"/><linearGradient id="linear-gradient-27" x1="161.68" y1="164.26" x2="112.91" y2="164.07" xlink:href="#linear-gradient-2"/><linearGradient id="linear-gradient-28" x1="122.97" y1="163.91" x2="164.51" y2="166.72" xlink:href="#linear-gradient-2"/><linearGradient id="linear-gradient-29" x1="144.05" y1="91.86" x2="103.8" y2="67.41" gradientUnits="userSpaceOnUse"><stop offset="0.28" stop-color="#1a3d0f" stop-opacity="0"/><stop offset="0.93" stop-color="#1a3d0f" stop-opacity="0.9"/><stop offset="1" stop-color="#1a3d0f"/></linearGradient></defs><g class="cls-1"><g id="Layer_3" data-name="Layer 3"><path class="cls-2" d="M198.87,113.89l-10.2-1.58c-.27-1.93-.8-5.28-1.67-9.63-.76-3.79-4.86-23.2-11.59-33.05,0,0-10.74-16.31-30.72-21.23-8.67-.71-30.08-.32-44.7,18.11-18.71,23.6,2.35,58.95,9,67.66l.5.65,0,0c.49.6,1,1.18,1.53,1.75l0,0L100.59,168a62.21,62.21,0,0,0,89.4,1.55l-5.52-29.84a50.88,50.88,0,0,0,14.17-24.9Z"/><path class="cls-3" d="M146,187.76a62,62,0,0,0,41.27-15.64l-5.47-31.58c-8.36,6.35-21.29,12.59-32.58,12.59A49.68,49.68,0,0,1,114,138.4l-10.8,32.22A62,62,0,0,0,146,187.76Z"/><path class="cls-4" d="M104.33,171.7c4.58-15,10.91-32.36,10.91-32.36l-2-2.6L102,169.57C102.78,170.31,103.56,171,104.33,171.7Z"/><path class="cls-5" d="M149.75,120.1l-1.73.49a14.12,14.12,0,0,0,4.64-2.48,86.76,86.76,0,0,1,17.72-3.27c2.31-1.22,2.82-.08,5.21-.5,4.16-.73,8.26-1.63,9.3.59l.8.07-.08-.71s-.52-4.33-1.85-11c-1.15-5.76-2.38-13.34-4.66-19.76a29.5,29.5,0,0,0-4.79-11.36C142.2,23.47,103.79,61.09,98.89,69.3a11.15,11.15,0,0,1-2,3.3l-.51.62c-.19.27-.43.6-.5.71a21.32,21.32,0,0,0-1.22,2.13,1.15,1.15,0,0,0-.06.17A9.63,9.63,0,0,1,93.78,78a9.18,9.18,0,0,1,.57,3.21c0,6.4-.59,12.72-.92,19.11-.3,5.69,2.28,9.12,5.65,13.51a6.33,6.33,0,0,1,1.1,2.26c1.06,0-.22,2.48,1,2.14l.41-.4,1.22-.14c.89-.23-2.22-.48,7.81,15.3,8.72,10.85,23.6,17.79,38.57,17.79,21.35,0,39.91-14.77,45.9-34.18C172.36,113.16,160.08,117.12,149.75,120.1Zm-15.25,3.14c-.51,0-1,0-1.49,0-15.21,0-16.68-14.12-16.69-14.27l1.11-.1c.06.57,1.49,14.1,17,13.21a40,40,0,0,0,4.19-.47,10.24,10.24,0,0,0,5.12.08A49.93,49.93,0,0,1,134.5,123.24Z"/><g class="cls-6"><path class="cls-7" d="M192.22,116.17c-4.61,15.83-16.92,28.64-32.15,33.24a49.13,49.13,0,0,0,35.05-32.86C194.13,116.4,193.18,116.29,192.22,116.17Z"/></g><path class="cls-4" d="M174,73.93a131.08,131.08,0,0,1,8.8,39.62l4.39,1.8S182,80.28,174,73.93Z"/><path class="cls-8" d="M174.8,117.5a2.23,2.23,0,0,1-2.1-1.56l-9.29.81-56.36-1.2s6,33.58,45.77,32c22.74-.91,34.44-17.62,40.13-30.52C186.9,117.22,180.86,117.47,174.8,117.5Z"/><g class="cls-6"><path class="cls-7" d="M150.72,150.62a45,45,0,0,1-43.9-35.27l-.33.1a9.25,9.25,0,0,1-3.21.84,45,45,0,0,0,49.51,34.23C152.1,150.55,151.42,150.62,150.72,150.62Z"/></g><path class="cls-9" d="M182.6,141.34l-.8-.8c-8.36,6.35-21.29,12.59-32.58,12.59A49.68,49.68,0,0,1,114,138.4l-4.44,13.25a114.12,114.12,0,0,0,26.72,4.48C157.41,157.39,176.6,150.53,182.6,141.34Z"/><path class="cls-10" d="M165.2,125.47,162.26,128a3.08,3.08,0,0,1-4.7-.8l-3.08-5.42a2.71,2.71,0,0,1,3.28-3.89l6.46,2.34A3.09,3.09,0,0,1,165.2,125.47Z"/><path class="cls-11" d="M127.43,56.85,125,58.94a2.53,2.53,0,0,1-3.87-.66l-2.54-4.46a2.23,2.23,0,0,1,2.7-3.2l5.33,1.92A2.54,2.54,0,0,1,127.43,56.85Z"/><path class="cls-12" d="M106.37,76.11l-1,3a2.54,2.54,0,0,1-3.64,1.48l-4.51-2.45a2.24,2.24,0,0,1,.6-4.15l5.54-1.17A2.54,2.54,0,0,1,106.37,76.11Z"/><path class="cls-13" d="M122.17,143.55l-3.27-2.08a3.09,3.09,0,0,1-.58-4.74l4.31-4.5a2.72,2.72,0,0,1,4.67,2l-.4,6.86A3.08,3.08,0,0,1,122.17,143.55Z"/><path class="cls-14" d="M188.17,130.21l-1.47-1.47a1.64,1.64,0,0,1,.26-2.53l2.77-1.85a1.45,1.45,0,0,1,2.19,1.6l-1,3.53A1.65,1.65,0,0,1,188.17,130.21Z"/><path class="cls-15" d="M181.46,120.44l.27-1.54a1.24,1.24,0,0,1,1.67-.94l2.34.9a1.09,1.09,0,0,1,0,2l-2.6.91A1.24,1.24,0,0,1,181.46,120.44Z"/><path class="cls-16" d="M113.82,69.1l1.51-.41a1.23,1.23,0,0,1,1.56,1.1l.18,2.5a1.09,1.09,0,0,1-1.86.85l-1.94-2A1.24,1.24,0,0,1,113.82,69.1Z"/><path class="cls-17" d="M123,69.27l.27-1.54a1.24,1.24,0,0,1,1.67-1l2.33.91a1.08,1.08,0,0,1,0,2l-2.6.92A1.24,1.24,0,0,1,123,69.27Z"/><path class="cls-18" d="M131.8,55.62l.26-1.54a1.25,1.25,0,0,1,1.67-.95l2.34.91a1.09,1.09,0,0,1,0,2l-2.61.92A1.24,1.24,0,0,1,131.8,55.62Z"/><path class="cls-19" d="M173.47,177.74l.27-1.54a1.24,1.24,0,0,1,1.66-.95l2.34.9a1.09,1.09,0,0,1,0,2l-2.61.92A1.24,1.24,0,0,1,173.47,177.74Z"/><path class="cls-20" d="M165.93,134.12,167,133a1.24,1.24,0,0,1,1.91.17l1.4,2.08a1.09,1.09,0,0,1-1.19,1.66l-2.66-.74A1.24,1.24,0,0,1,165.93,134.12Z"/><path class="cls-21" d="M115.21,62.51l1.1-1.11a1.24,1.24,0,0,1,1.91.18l1.4,2.07a1.09,1.09,0,0,1-1.19,1.66l-2.67-.73A1.24,1.24,0,0,1,115.21,62.51Z"/><path class="cls-22" d="M128,61.42l1.1-1.11a1.24,1.24,0,0,1,1.91.18l1.4,2.08a1.09,1.09,0,0,1-1.2,1.66l-2.66-.74A1.24,1.24,0,0,1,128,61.42Z"/><path class="cls-23" d="M177.93,136.91,179,135.8a1.24,1.24,0,0,1,1.91.18l1.4,2.08a1.09,1.09,0,0,1-1.19,1.66l-2.66-.74A1.24,1.24,0,0,1,177.93,136.91Z"/><path class="cls-24" d="M159.57,147.68l.48-2.78a2.23,2.23,0,0,1,3-1.7l4.22,1.62a2,2,0,0,1-.06,3.69l-4.7,1.66A2.24,2.24,0,0,1,159.57,147.68Z"/><path class="cls-25" d="M176.42,126.24l2.21,1a1.93,1.93,0,0,1,.73,2.9L177,133.33a1.7,1.7,0,0,1-3.07-.89l-.31-4.31A1.94,1.94,0,0,1,176.42,126.24Z"/><path class="cls-26" d="M156.64,134.37l2.2,1a1.94,1.94,0,0,1,.74,2.91l-2.33,3.15a1.71,1.71,0,0,1-3.07-.9l-.3-4.3A1.94,1.94,0,0,1,156.64,134.37Z"/><path class="cls-27" d="M147.79,133.25,146,132a2.48,2.48,0,0,1-.89-2.83l1.34-2.69c.55-1.09,2.11-.29,2.39,1.22l.74,4.1C149.86,133.21,148.86,134,147.79,133.25Z"/><path class="cls-28" d="M142.36,54.05l-1.76-1.24a2.5,2.5,0,0,1-.9-2.84l1.35-2.68c.54-1.09,2.11-.29,2.38,1.21l.75,4.1C144.44,54,143.43,54.81,142.36,54.05Z"/><path class="cls-29" d="M151.35,152.11l-2.64-.15A3,3,0,0,1,146,149.6l-.34-3.66c-.14-1.48,2-1.67,3.26-.29l3.43,3.78C153.48,150.72,153,152.21,151.35,152.11Z"/><path class="cls-30" d="M109.31,68l-2.64-.15a3.07,3.07,0,0,1-2.77-2.36l-.34-3.67c-.14-1.48,2-1.67,3.27-.28l3.43,3.77C111.44,66.64,110.91,68.12,109.31,68Z"/><path class="cls-31" d="M116.32,109l7-1.13s-.48,14.27,16.31,10.47S168.41,110.56,187,112l-.19,2.39s-23.19.6-40.58,6.6S117.79,118.05,116.32,109Z"/><path class="cls-2" d="M185.2,111.39c.82,0,1.64.12,2.45.21-.28-1.93-.78-4.94-1.54-8.74-.64-3.2-5.47-26.42-13.31-35.16-.53.59-1,.21-1.74.62,4.79,6.51,10.44,23.63,12.7,35C184.44,106.71,184.9,109.48,185.2,111.39Z"/><path class="cls-32" d="M179.07,157.59s-2.87,9.33-20.66,10.13c0,0,13.5,3.2,21.72-4.4Z"/><path class="cls-33" d="M123.2,159.16s5.1,8.69,23.49,9.49c0,0-13.73,2.67-25-4.6Z"/><path class="cls-2" d="M103.15,170.62l11.43-34.1-2.27-.76-11,33C101.91,169.41,102.52,170,103.15,170.62Z"/><path class="cls-4" d="M188.77,170.74l-5.92-30.2-2.33,2.31s2.73,15,5.29,30.53C186.83,172.53,187.81,171.64,188.77,170.74Z"/><path class="cls-34" d="M176.54,167.35l1.2-.33,1.74,11c.47-.3.94-.59,1.39-.9l-2-12.65s-2.09,2-8.35,3.51A25.43,25.43,0,0,0,176.54,167.35Z"/><path class="cls-2" d="M182.93,175.63l-3.06-19-1.74,2.8,2.75,17.63C181.57,176.62,182.26,176.13,182.93,175.63Z"/><path class="cls-2" d="M189.21,170.32l-5.81-31.38-2.33.56,6.06,32.74C187.83,171.62,188.53,171,189.21,170.32Z"/><path class="cls-35" d="M145.91,187.76a22.55,22.55,0,0,1-1.09-13.45,6.69,6.69,0,0,1,6.62-4.72A6.6,6.6,0,0,0,158,162c-.56-3.75-1.26-7.3-1.73-10-2.26.42-4.82,1.2-7,1.2a49.49,49.49,0,0,1-32.35-12.07c-4.15,9.17-6.72,21.57-6.81,35.26A61.94,61.94,0,0,0,145.91,187.76Z"/><polygon class="cls-2" points="117.22 180.71 123.27 159.16 124.57 161.06 120.61 182.47 117.22 180.71"/><path class="cls-2" d="M103.34,117.23s4.32,10,10.15,17.3l-2.51.61s-8.59-15-9.27-17.18Z"/><path class="cls-2" d="M122.59,104.78a6,6,0,0,1-5.33,3.32,5.55,5.55,0,0,1-1.87-.36,10.44,10.44,0,0,1-.35,2.18,7.75,7.75,0,0,0,2.22.35,8.14,8.14,0,0,0,7.49-5C124,105.15,123.31,105,122.59,104.78Z"/><circle class="cls-36" cx="137.83" cy="88.08" r="36.21"/><path class="cls-2" d="M133.68,124.15A18.29,18.29,0,0,1,122.63,121c-6-4.42-6.38-11.7-6.4-12l2.4-.09c0,.06.33,6.47,5.44,10.18,4.39,3.19,11.18,4.15,19.63,1.15,21.87-7.76,36.05-9.8,52.58-6.7l.09,4.38c-12.49-2.62-25.12-3.53-52,4.63A36.51,36.51,0,0,1,133.68,124.15Z"/><path class="cls-2" d="M158.7,101.48s-9.14,2.55-3.44,5.74S158.7,101.48,158.7,101.48Z"/><path class="cls-2" d="M161.82,100.94s8.67-.52,4.69,4S161.82,100.94,161.82,100.94Z"/><path class="cls-2" d="M103.79,118.79a42,42,0,1,1,71.65-42.47,6.15,6.15,0,0,1,3.08-.72C171.78,58.77,156,46.71,136.75,46.71A45.7,45.7,0,0,0,91,92.42a52.45,52.45,0,0,0,7.19,25.36C100.94,118.86,101.47,118.11,103.79,118.79Z"/><path class="cls-2" d="M195.4,114.23a47.43,47.43,0,0,1-83.81,17.91c-.57.56-1.49,2-2.21,2.4a49.61,49.61,0,0,0,39.71,19.19c25-.14,44.77-16.13,48.67-39.1Z"/></g></g></svg>